<svg xmlns="http://www.w3.org/2000/svg" xmlns:xlink="http://www.w3.org/1999/xlink" width="428" zoomAndPan="magnify" viewBox="0 0 321 143.999998" height="192" preserveAspectRatio="xMidYMid meet" version="1.0"><defs><g/><clipPath id="39f61c5f21"><path d="M 59 19 L 73 19 L 73 143.851562 L 59 143.851562 Z M 59 19 " clip-rule="nonzero"/></clipPath><clipPath id="f53e44bbe1"><path d="M 70 31 L 79.0625 31 L 79.0625 142 L 70 142 Z M 70 31 " clip-rule="nonzero"/></clipPath><clipPath id="d54ff7d363"><path d="M 0.3125 19 L 62 19 L 62 143.851562 L 0.3125 143.851562 Z M 0.3125 19 " clip-rule="nonzero"/></clipPath></defs><g clip-path="url(#39f61c5f21)"><path fill="#f14624" d="M 61.101562 19.324219 L 59.121094 92.613281 L 61.101562 143.800781 L 70.082031 141.292969 L 72.464844 91.242188 L 70.082031 31.074219 L 61.101562 19.324219 " fill-opacity="1" fill-rule="nonzero"/></g><g clip-path="url(#f53e44bbe1)"><path fill="#f68712" d="M 79.0625 31.074219 L 70.082031 31.074219 L 70.082031 141.292969 L 79.0625 141 L 79.0625 31.074219 " fill-opacity="1" fill-rule="nonzero"/></g><g clip-path="url(#d54ff7d363)"><path fill="#f68712" d="M 57.523438 79.277344 C 57.449219 80.191406 56.589844 80.832031 55.695312 80.640625 L 42.566406 77.820312 L 55.992188 77.640625 C 56.886719 77.628906 57.59375 78.386719 57.523438 79.277344 Z M 42.351562 80.183594 L 49.878906 83.199219 C 50.394531 83.40625 50.609375 84.015625 50.339844 84.496094 C 50.074219 84.96875 49.460938 85.109375 49.019531 84.804688 Z M 51.742188 94.628906 C 50.917969 95.335938 49.664062 95.152344 49.074219 94.238281 L 40.433594 80.898438 L 51.832031 91.976562 C 52.589844 92.710938 52.546875 93.941406 51.742188 94.628906 Z M 50.855469 72.023438 L 43.128906 74.472656 L 50.117188 70.359375 C 50.582031 70.085938 51.179688 70.269531 51.410156 70.757812 C 51.644531 71.261719 51.386719 71.855469 50.855469 72.023438 Z M 40.996094 72.351562 L 49.535156 58.945312 C 50.101562 58.050781 51.3125 57.84375 52.148438 58.492188 C 53.003906 59.15625 53.078125 60.425781 52.308594 61.1875 Z M 40.445312 63.183594 L 39.09375 71.179688 L 38.628906 63.082031 C 38.597656 62.542969 39.039062 62.09375 39.578125 62.113281 C 40.128906 62.132812 40.539062 62.636719 40.445312 63.183594 Z M 30.21875 57.503906 C 29.789062 56.535156 30.285156 55.410156 31.289062 55.074219 C 32.316406 54.730469 33.414062 55.367188 33.621094 56.433594 L 36.652344 72.039062 Z M 27.570312 69.800781 C 27.078125 69.582031 26.882812 68.984375 27.148438 68.515625 C 27.421875 68.03125 28.054688 67.902344 28.5 68.234375 L 34.96875 73.128906 Z M 47.480469 23.722656 C 48.15625 25.402344 48.757812 27.152344 49.273438 28.96875 C 49.421875 29.5 49.5625 30.027344 49.695312 30.558594 C 49.886719 31.332031 49.433594 32.121094 48.664062 32.339844 C 47.863281 32.566406 47.03125 32.082031 46.832031 31.273438 C 46.707031 30.773438 46.574219 30.273438 46.429688 29.773438 C 45.929688 28 45.335938 26.28125 44.660156 24.632812 L 11.574219 35.3125 C 11.832031 36.664062 12.152344 38.019531 12.535156 39.375 C 12.679688 39.875 12.828125 40.371094 12.984375 40.863281 C 13.234375 41.65625 12.78125 42.503906 11.980469 42.730469 C 11.210938 42.949219 10.410156 42.515625 10.167969 41.753906 C 10.003906 41.234375 9.84375 40.710938 9.695312 40.179688 C 9.320312 38.855469 9.003906 37.535156 8.742188 36.226562 L 0.316406 38.949219 L 5.199219 98.121094 C 6.386719 96.898438 7.175781 95.882812 7.355469 95.214844 C 9.351562 87.714844 9.269531 85.765625 10.617188 78.710938 C 11.476562 74.214844 16 73.140625 16.558594 80.039062 C 16.707031 81.84375 16.984375 85.03125 17.933594 86.945312 C 18.300781 86.679688 32.699219 77.03125 36.949219 74.199219 C 40.183594 72.039062 43.910156 75.933594 39.691406 79.285156 C 36.476562 81.839844 33.019531 84.585938 31.429688 85.847656 L 29.4375 87.332031 L 32.640625 86.019531 C 33.609375 86.179688 34.507812 86.726562 35.097656 87.605469 C 35.8125 88.679688 35.886719 89.996094 35.410156 91.097656 L 32.523438 93.242188 L 35.601562 91.984375 C 35.917969 92.21875 36.203125 92.511719 36.4375 92.859375 C 36.605469 93.109375 36.734375 93.378906 36.828125 93.652344 C 36.980469 93.929688 37.054688 94.257812 37.019531 94.648438 C 37.046875 95.382812 36.839844 96.117188 36.425781 96.734375 L 33.558594 98.796875 L 36.765625 97.542969 C 37.179688 97.78125 37.546875 98.113281 37.828125 98.539062 C 37.980469 98.765625 38.097656 99.007812 38.183594 99.257812 L 38.1875 99.253906 C 38.1875 99.253906 41.539062 101.773438 33.46875 108.3125 C 25.398438 114.851562 20.34375 115.875 18.808594 117.613281 C 17.75 118.816406 11.496094 125.214844 7.75 129.035156 L 8.285156 135.523438 L 61.101562 143.800781 L 61.101562 19.324219 L 47.480469 23.722656 " fill-opacity="1" fill-rule="nonzero"/></g><path fill="#f14624" d="M 33.46875 108.3125 C 41.539062 101.773438 38.1875 99.253906 38.1875 99.253906 L 38.183594 99.257812 C 38.65625 100.601562 38.183594 102.144531 36.941406 102.972656 C 36.570312 103.222656 23.917969 113.0625 19.609375 113.34375 C 17.695312 113.46875 12.40625 117.175781 7.105469 121.261719 L 7.75 129.035156 C 11.496094 125.214844 17.75 118.816406 18.808594 117.613281 C 20.34375 115.875 25.398438 114.851562 33.46875 108.3125 " fill-opacity="1" fill-rule="nonzero"/><path fill="#40b93c" d="M 44.367188 8.925781 C 42.925781 8.519531 41.449219 8.402344 39.964844 8.539062 C 40.925781 9.433594 41.855469 10.410156 42.753906 11.464844 C 43.035156 11.515625 43.316406 11.578125 43.59375 11.660156 C 47.195312 12.679688 50.03125 15.839844 51.65625 20.601562 L 54.21875 19.777344 C 52.390625 14.261719 48.988281 10.238281 44.367188 8.925781 Z M 34.074219 10.402344 C 27.789062 13.78125 22.050781 21.367188 19.140625 31.101562 L 22.207031 30.109375 C 24.238281 24.230469 27.414062 19.171875 31.292969 15.6875 C 32.980469 14.171875 34.710938 13.039062 36.429688 12.304688 C 36.375 12.257812 36.324219 12.207031 36.269531 12.160156 C 35.542969 11.503906 34.8125 10.921875 34.074219 10.402344 " fill-opacity="1" fill-rule="nonzero"/><path fill="#40b93c" d="M 51.328125 31.070312 C 51.199219 30.539062 51.058594 30.011719 50.910156 29.480469 C 46.007812 12.167969 33.175781 0.644531 22.246094 3.738281 C 11.320312 6.835938 6.429688 23.378906 11.328125 40.691406 C 11.480469 41.222656 11.636719 41.746094 11.804688 42.265625 C 12.046875 43.027344 12.847656 43.457031 13.613281 43.242188 C 14.417969 43.015625 14.871094 42.167969 14.617188 41.375 C 14.460938 40.882812 14.3125 40.386719 14.171875 39.882812 C 11.976562 32.125 11.804688 24.339844 13.691406 17.957031 C 15.453125 12 18.800781 8.042969 23.121094 6.816406 C 27.4375 5.59375 32.363281 7.207031 36.984375 11.359375 C 41.933594 15.804688 45.871094 22.523438 48.066406 30.285156 C 48.207031 30.785156 48.339844 31.285156 48.464844 31.785156 C 48.667969 32.59375 49.496094 33.074219 50.300781 32.847656 C 51.066406 32.632812 51.523438 31.84375 51.328125 31.070312 " fill-opacity="1" fill-rule="nonzero"/><g fill="#1f763b" fill-opacity="1"><g transform="translate(88.44401, 87.959608)"><g><path d="M 13.78125 0.21875 C 13.09375 0.21875 12.367188 0.03125 11.609375 -0.34375 C 10.859375 -0.71875 9.992188 -1.414062 9.015625 -2.4375 L 4.359375 -7.328125 L 4.359375 0 L 2.359375 0 L 2.359375 -11.984375 C 2.359375 -12.742188 2.253906 -13.300781 2.046875 -13.65625 C 1.835938 -14.019531 1.421875 -14.203125 0.796875 -14.203125 L 0.359375 -14.203125 L 0.359375 -14.65625 L 2.359375 -14.65625 C 2.898438 -14.65625 3.304688 -14.582031 3.578125 -14.4375 C 3.859375 -14.300781 4.054688 -14.046875 4.171875 -13.671875 C 4.296875 -13.304688 4.359375 -12.742188 4.359375 -11.984375 L 4.359375 -7.65625 L 9.015625 -12.328125 L 9.453125 -12.78125 C 9.867188 -13.21875 10.21875 -13.554688 10.5 -13.796875 C 10.78125 -14.046875 11.113281 -14.25 11.5 -14.40625 C 11.882812 -14.570312 12.3125 -14.65625 12.78125 -14.65625 L 13.90625 -14.65625 L 13.90625 -14.09375 C 13.28125 -14.09375 12.738281 -13.984375 12.28125 -13.765625 C 11.820312 -13.554688 11.289062 -13.148438 10.6875 -12.546875 L 6.34375 -8.21875 L 11.453125 -2.890625 C 12.109375 -2.222656 12.769531 -1.660156 13.4375 -1.203125 C 14.101562 -0.753906 14.703125 -0.492188 15.234375 -0.421875 L 15.234375 0 C 14.785156 0.144531 14.300781 0.21875 13.78125 0.21875 Z M 13.78125 0.21875 "/></g></g></g><g fill="#1f763b" fill-opacity="1"><g transform="translate(103.470217, 87.959608)"><g><path d="M 2.359375 -11.984375 C 2.359375 -12.742188 2.253906 -13.300781 2.046875 -13.65625 C 1.835938 -14.019531 1.421875 -14.203125 0.796875 -14.203125 L 0.359375 -14.203125 L 0.359375 -14.65625 L 6.171875 -14.65625 C 9.046875 -14.65625 11.21875 -14.015625 12.6875 -12.734375 C 14.15625 -11.460938 14.890625 -9.691406 14.890625 -7.421875 C 14.890625 -5.953125 14.578125 -4.65625 13.953125 -3.53125 C 13.335938 -2.414062 12.421875 -1.546875 11.203125 -0.921875 C 9.984375 -0.304688 8.5 0 6.75 0 L 2.359375 0 Z M 6.6875 -0.78125 C 7.78125 -0.78125 8.765625 -1.046875 9.640625 -1.578125 C 10.523438 -2.117188 11.21875 -2.878906 11.71875 -3.859375 C 12.226562 -4.847656 12.484375 -6.003906 12.484375 -7.328125 C 12.484375 -8.617188 12.234375 -9.757812 11.734375 -10.75 C 11.234375 -11.738281 10.539062 -12.503906 9.65625 -13.046875 C 8.769531 -13.597656 7.765625 -13.875 6.640625 -13.875 C 5.929688 -13.875 5.191406 -13.753906 4.421875 -13.515625 L 4.421875 -1.0625 C 5.242188 -0.875 6 -0.78125 6.6875 -0.78125 Z M 6.6875 -0.78125 "/></g></g></g><g fill="#1f763b" fill-opacity="1"><g transform="translate(119.339841, 87.959608)"><g><path d="M 2.359375 -11.984375 C 2.359375 -12.742188 2.253906 -13.300781 2.046875 -13.65625 C 1.835938 -14.019531 1.421875 -14.203125 0.796875 -14.203125 L 0.359375 -14.203125 L 0.359375 -14.65625 L 2.359375 -14.65625 C 2.898438 -14.65625 3.304688 -14.582031 3.578125 -14.4375 C 3.859375 -14.300781 4.054688 -14.046875 4.171875 -13.671875 C 4.296875 -13.304688 4.359375 -12.742188 4.359375 -11.984375 L 4.359375 -0.890625 L 12.234375 -0.890625 L 12.234375 0 L 2.359375 0 Z M 2.359375 -11.984375 "/></g></g></g><g fill="#1f763b" fill-opacity="1"><g transform="translate(131.724808, 87.959608)"><g><path d="M 2.78125 -11.765625 C 2.4375 -11.765625 2.140625 -11.90625 1.890625 -12.1875 C 1.648438 -12.46875 1.53125 -12.800781 1.53125 -13.1875 C 1.53125 -13.5 1.625 -13.742188 1.8125 -13.921875 C 2 -14.097656 2.242188 -14.1875 2.546875 -14.1875 C 2.890625 -14.1875 3.179688 -14.046875 3.421875 -13.765625 C 3.671875 -13.484375 3.796875 -13.148438 3.796875 -12.765625 C 3.796875 -12.453125 3.703125 -12.207031 3.515625 -12.03125 C 3.328125 -11.851562 3.082031 -11.765625 2.78125 -11.765625 Z M 1.9375 -7.765625 C 1.9375 -8.523438 1.832031 -9.082031 1.625 -9.4375 C 1.414062 -9.800781 1 -9.984375 0.375 -9.984375 L -0.0625 -9.984375 L -0.0625 -10.4375 L 1.9375 -10.4375 C 2.476562 -10.4375 2.882812 -10.363281 3.15625 -10.21875 C 3.4375 -10.082031 3.632812 -9.828125 3.75 -9.453125 C 3.875 -9.085938 3.9375 -8.523438 3.9375 -7.765625 L 3.9375 0 L 1.9375 0 Z M 1.9375 -7.765625 "/></g></g></g><g fill="#1f763b" fill-opacity="1"><g transform="translate(137.184841, 87.959608)"><g><path d="M 2.203125 -7.875 C 1.847656 -8.707031 1.503906 -9.289062 1.171875 -9.625 C 0.847656 -9.957031 0.421875 -10.140625 -0.109375 -10.171875 L -0.109375 -10.609375 C -0.0351562 -10.609375 0.0664062 -10.613281 0.203125 -10.625 C 0.347656 -10.644531 0.492188 -10.65625 0.640625 -10.65625 C 1.429688 -10.65625 2.144531 -10.457031 2.78125 -10.0625 C 3.414062 -9.675781 3.960938 -8.945312 4.421875 -7.875 L 6.421875 -3.109375 L 9.53125 -10.4375 L 10.640625 -10.4375 L 6.078125 0.21875 L 5.640625 0.21875 Z M 2.203125 -7.875 "/></g></g></g><g fill="#1f763b" fill-opacity="1"><g transform="translate(148.215892, 87.959608)"><g><path d="M 5.65625 0.21875 C 4.65625 0.21875 3.804688 -0.0195312 3.109375 -0.5 C 2.410156 -0.976562 1.882812 -1.628906 1.53125 -2.453125 C 1.175781 -3.273438 1 -4.195312 1 -5.21875 C 1 -6.226562 1.175781 -7.144531 1.53125 -7.96875 C 1.882812 -8.800781 2.394531 -9.457031 3.0625 -9.9375 C 3.738281 -10.414062 4.53125 -10.65625 5.4375 -10.65625 C 6.9375 -10.65625 8.050781 -10.238281 8.78125 -9.40625 C 9.507812 -8.570312 9.875 -7.359375 9.875 -5.765625 L 9.84375 -4.890625 L 3.109375 -4.890625 C 3.109375 -3.640625 3.375 -2.625 3.90625 -1.84375 C 4.4375 -1.0625 5.171875 -0.671875 6.109375 -0.671875 C 6.804688 -0.671875 7.394531 -0.816406 7.875 -1.109375 C 8.351562 -1.398438 8.800781 -1.84375 9.21875 -2.4375 L 9.65625 -2.109375 C 9.164062 -1.296875 8.59375 -0.703125 7.9375 -0.328125 C 7.289062 0.0351562 6.53125 0.21875 5.65625 0.21875 Z M 7.765625 -5.765625 C 7.765625 -7.078125 7.570312 -8.070312 7.1875 -8.75 C 6.800781 -9.425781 6.21875 -9.765625 5.4375 -9.765625 C 5 -9.765625 4.597656 -9.585938 4.234375 -9.234375 C 3.878906 -8.890625 3.601562 -8.414062 3.40625 -7.8125 C 3.207031 -7.207031 3.109375 -6.523438 3.109375 -5.765625 Z M 7.765625 -5.765625 "/></g></g></g><g fill="#1f763b" fill-opacity="1"><g transform="translate(88.44401, 104.501628)"><g><path d="M 1.125 -4.8125 C 1.695312 -5.351562 2.398438 -5.625 3.234375 -5.625 C 4.078125 -5.625 4.78125 -5.351562 5.34375 -4.8125 C 5.914062 -4.269531 6.203125 -3.597656 6.203125 -2.796875 C 6.203125 -1.992188 5.914062 -1.316406 5.34375 -0.765625 C 4.78125 -0.222656 4.078125 0.046875 3.234375 0.046875 C 2.398438 0.046875 1.695312 -0.222656 1.125 -0.765625 C 0.550781 -1.316406 0.265625 -1.992188 0.265625 -2.796875 C 0.265625 -3.597656 0.550781 -4.269531 1.125 -4.8125 Z M 3.25 -4.78125 C 2.695312 -4.78125 2.222656 -4.585938 1.828125 -4.203125 C 1.429688 -3.816406 1.234375 -3.347656 1.234375 -2.796875 C 1.234375 -2.242188 1.429688 -1.773438 1.828125 -1.390625 C 2.222656 -1.003906 2.695312 -0.8125 3.25 -0.8125 C 3.800781 -0.8125 4.269531 -1.003906 4.65625 -1.390625 C 5.039062 -1.773438 5.234375 -2.242188 5.234375 -2.796875 C 5.234375 -3.347656 5.039062 -3.816406 4.65625 -4.203125 C 4.269531 -4.585938 3.800781 -4.78125 3.25 -4.78125 Z M 3.25 -4.78125 "/></g></g></g><g fill="#1f763b" fill-opacity="1"><g transform="translate(97.324079, 104.501628)"><g><path d="M 5.59375 0 L 4.65625 0 L 1.6875 -4.015625 L 1.6875 0 L 0.734375 0 L 0.734375 -5.59375 L 1.65625 -5.59375 L 4.65625 -1.578125 L 4.65625 -5.59375 L 5.59375 -5.59375 Z M 5.59375 0 "/></g></g></g><g fill="#1f763b" fill-opacity="1"><g transform="translate(106.060155, 104.501628)"><g><path d="M 1.6875 -0.859375 L 4.109375 -0.859375 L 4.109375 0 L 0.734375 0 L 0.734375 -5.59375 L 1.6875 -5.59375 Z M 1.6875 -0.859375 "/></g></g></g><g fill="#1f763b" fill-opacity="1"><g transform="translate(112.73221, 104.501628)"><g><path d="M 1.6875 0 L 0.734375 0 L 0.734375 -5.59375 L 1.6875 -5.59375 Z M 1.6875 0 "/></g></g></g><g fill="#1f763b" fill-opacity="1"><g transform="translate(117.548239, 104.501628)"><g><path d="M 5.59375 0 L 4.65625 0 L 1.6875 -4.015625 L 1.6875 0 L 0.734375 0 L 0.734375 -5.59375 L 1.65625 -5.59375 L 4.65625 -1.578125 L 4.65625 -5.59375 L 5.59375 -5.59375 Z M 5.59375 0 "/></g></g></g><g fill="#1f763b" fill-opacity="1"><g transform="translate(126.284314, 104.501628)"><g><path d="M 4.734375 -4.75 L 1.6875 -4.75 L 1.6875 -3.234375 L 4.421875 -3.234375 L 4.421875 -2.390625 L 1.6875 -2.390625 L 1.6875 -0.84375 L 4.828125 -0.84375 L 4.828125 0 L 0.734375 0 L 0.734375 -5.59375 L 4.734375 -5.59375 Z M 4.734375 -4.75 "/></g></g></g><g fill="#1f763b" fill-opacity="1"><g transform="translate(133.932373, 104.501628)"><g/></g></g><g fill="#1f763b" fill-opacity="1"><g transform="translate(138.396401, 104.501628)"><g><path d="M 2.578125 -5.640625 C 3.296875 -5.640625 3.945312 -5.445312 4.53125 -5.0625 L 4.140625 -4.234375 C 3.566406 -4.578125 3.019531 -4.75 2.5 -4.75 C 2.21875 -4.75 1.992188 -4.695312 1.828125 -4.59375 C 1.671875 -4.5 1.59375 -4.359375 1.59375 -4.171875 C 1.59375 -3.984375 1.664062 -3.820312 1.8125 -3.6875 C 1.96875 -3.5625 2.15625 -3.46875 2.375 -3.40625 C 2.601562 -3.34375 2.847656 -3.265625 3.109375 -3.171875 C 3.367188 -3.078125 3.609375 -2.976562 3.828125 -2.875 C 4.054688 -2.769531 4.242188 -2.609375 4.390625 -2.390625 C 4.535156 -2.171875 4.609375 -1.898438 4.609375 -1.578125 C 4.609375 -1.085938 4.410156 -0.695312 4.015625 -0.40625 C 3.628906 -0.113281 3.125 0.03125 2.5 0.03125 C 2.070312 0.03125 1.65625 -0.046875 1.25 -0.203125 C 0.851562 -0.367188 0.503906 -0.585938 0.203125 -0.859375 L 0.609375 -1.671875 C 0.898438 -1.410156 1.210938 -1.207031 1.546875 -1.0625 C 1.890625 -0.925781 2.210938 -0.859375 2.515625 -0.859375 C 2.847656 -0.859375 3.101562 -0.914062 3.28125 -1.03125 C 3.46875 -1.15625 3.5625 -1.320312 3.5625 -1.53125 C 3.5625 -1.726562 3.484375 -1.890625 3.328125 -2.015625 C 3.179688 -2.148438 2.992188 -2.25 2.765625 -2.3125 C 2.546875 -2.375 2.304688 -2.445312 2.046875 -2.53125 C 1.785156 -2.613281 1.539062 -2.703125 1.3125 -2.796875 C 1.09375 -2.898438 0.90625 -3.0625 0.75 -3.28125 C 0.601562 -3.5 0.53125 -3.765625 0.53125 -4.078125 C 0.53125 -4.554688 0.71875 -4.9375 1.09375 -5.21875 C 1.46875 -5.5 1.960938 -5.640625 2.578125 -5.640625 Z M 2.578125 -5.640625 "/></g></g></g><g fill="#1f763b" fill-opacity="1"><g transform="translate(145.772455, 104.501628)"><g><path d="M 1.125 -4.8125 C 1.695312 -5.351562 2.398438 -5.625 3.234375 -5.625 C 4.078125 -5.625 4.78125 -5.351562 5.34375 -4.8125 C 5.914062 -4.269531 6.203125 -3.597656 6.203125 -2.796875 C 6.203125 -1.992188 5.914062 -1.316406 5.34375 -0.765625 C 4.78125 -0.222656 4.078125 0.046875 3.234375 0.046875 C 2.398438 0.046875 1.695312 -0.222656 1.125 -0.765625 C 0.550781 -1.316406 0.265625 -1.992188 0.265625 -2.796875 C 0.265625 -3.597656 0.550781 -4.269531 1.125 -4.8125 Z M 3.25 -4.78125 C 2.695312 -4.78125 2.222656 -4.585938 1.828125 -4.203125 C 1.429688 -3.816406 1.234375 -3.347656 1.234375 -2.796875 C 1.234375 -2.242188 1.429688 -1.773438 1.828125 -1.390625 C 2.222656 -1.003906 2.695312 -0.8125 3.25 -0.8125 C 3.800781 -0.8125 4.269531 -1.003906 4.65625 -1.390625 C 5.039062 -1.773438 5.234375 -2.242188 5.234375 -2.796875 C 5.234375 -3.347656 5.039062 -3.816406 4.65625 -4.203125 C 4.269531 -4.585938 3.800781 -4.78125 3.25 -4.78125 Z M 3.25 -4.78125 "/></g></g></g><g fill="#1f763b" fill-opacity="1"><g transform="translate(154.652523, 104.501628)"><g><path d="M 1.6875 -0.859375 L 4.109375 -0.859375 L 4.109375 0 L 0.734375 0 L 0.734375 -5.59375 L 1.6875 -5.59375 Z M 1.6875 -0.859375 "/></g></g></g><g fill="#1f763b" fill-opacity="1"><g transform="translate(161.324575, 104.501628)"><g><path d="M 5.5 -5.59375 L 5.5 -2.3125 C 5.5 -1.582031 5.28125 -1.003906 4.84375 -0.578125 C 4.414062 -0.160156 3.820312 0.046875 3.0625 0.046875 C 2.300781 0.046875 1.703125 -0.160156 1.265625 -0.578125 C 0.835938 -1.003906 0.625 -1.582031 0.625 -2.3125 L 0.625 -5.59375 L 1.5625 -5.59375 L 1.5625 -2.3125 C 1.5625 -1.84375 1.695312 -1.472656 1.96875 -1.203125 C 2.238281 -0.941406 2.609375 -0.8125 3.078125 -0.8125 C 3.535156 -0.8125 3.894531 -0.941406 4.15625 -1.203125 C 4.414062 -1.472656 4.546875 -1.84375 4.546875 -2.3125 L 4.546875 -5.59375 Z M 5.5 -5.59375 "/></g></g></g><g fill="#1f763b" fill-opacity="1"><g transform="translate(169.83664, 104.501628)"><g><path d="M 4.5625 -4.75 L 2.78125 -4.75 L 2.78125 0 L 1.84375 0 L 1.84375 -4.75 L 0.078125 -4.75 L 0.078125 -5.59375 L 4.5625 -5.59375 Z M 4.5625 -4.75 "/></g></g></g><g fill="#1f763b" fill-opacity="1"><g transform="translate(176.868694, 104.501628)"><g><path d="M 1.6875 0 L 0.734375 0 L 0.734375 -5.59375 L 1.6875 -5.59375 Z M 1.6875 0 "/></g></g></g><g fill="#1f763b" fill-opacity="1"><g transform="translate(181.684729, 104.501628)"><g><path d="M 1.125 -4.8125 C 1.695312 -5.351562 2.398438 -5.625 3.234375 -5.625 C 4.078125 -5.625 4.78125 -5.351562 5.34375 -4.8125 C 5.914062 -4.269531 6.203125 -3.597656 6.203125 -2.796875 C 6.203125 -1.992188 5.914062 -1.316406 5.34375 -0.765625 C 4.78125 -0.222656 4.078125 0.046875 3.234375 0.046875 C 2.398438 0.046875 1.695312 -0.222656 1.125 -0.765625 C 0.550781 -1.316406 0.265625 -1.992188 0.265625 -2.796875 C 0.265625 -3.597656 0.550781 -4.269531 1.125 -4.8125 Z M 3.25 -4.78125 C 2.695312 -4.78125 2.222656 -4.585938 1.828125 -4.203125 C 1.429688 -3.816406 1.234375 -3.347656 1.234375 -2.796875 C 1.234375 -2.242188 1.429688 -1.773438 1.828125 -1.390625 C 2.222656 -1.003906 2.695312 -0.8125 3.25 -0.8125 C 3.800781 -0.8125 4.269531 -1.003906 4.65625 -1.390625 C 5.039062 -1.773438 5.234375 -2.242188 5.234375 -2.796875 C 5.234375 -3.347656 5.039062 -3.816406 4.65625 -4.203125 C 4.269531 -4.585938 3.800781 -4.78125 3.25 -4.78125 Z M 3.25 -4.78125 "/></g></g></g><g fill="#1f763b" fill-opacity="1"><g transform="translate(190.564801, 104.501628)"><g><path d="M 5.59375 0 L 4.65625 0 L 1.6875 -4.015625 L 1.6875 0 L 0.734375 0 L 0.734375 -5.59375 L 1.65625 -5.59375 L 4.65625 -1.578125 L 4.65625 -5.59375 L 5.59375 -5.59375 Z M 5.59375 0 "/></g></g></g><g fill="#f68712" fill-opacity="1"><g transform="translate(161.25956, 89.062189)"><g><path d="M 7.21875 0.40625 C 5.65625 0.40625 4.1875 0.238281 2.8125 -0.09375 C 1.4375 -0.425781 0.300781 -0.867188 -0.59375 -1.421875 L 1.75 -5.90625 C 3.695312 -4.789062 5.726562 -4.234375 7.84375 -4.234375 C 8.613281 -4.234375 9.203125 -4.328125 9.609375 -4.515625 C 10.023438 -4.703125 10.234375 -4.957031 10.234375 -5.28125 C 10.234375 -5.59375 10.023438 -5.84375 9.609375 -6.03125 C 9.191406 -6.21875 8.523438 -6.425781 7.609375 -6.65625 C 6.398438 -6.96875 5.398438 -7.28125 4.609375 -7.59375 C 3.828125 -7.914062 3.140625 -8.40625 2.546875 -9.0625 C 1.953125 -9.726562 1.65625 -10.601562 1.65625 -11.6875 C 1.65625 -13.039062 2.019531 -14.226562 2.75 -15.25 C 3.476562 -16.28125 4.53125 -17.070312 5.90625 -17.625 C 7.28125 -18.1875 8.90625 -18.46875 10.78125 -18.46875 C 12.125 -18.46875 13.375 -18.332031 14.53125 -18.0625 C 15.695312 -17.800781 16.703125 -17.421875 17.546875 -16.921875 L 15.34375 -12.484375 C 14.644531 -12.929688 13.867188 -13.265625 13.015625 -13.484375 C 12.160156 -13.710938 11.285156 -13.828125 10.390625 -13.828125 C 9.546875 -13.828125 8.890625 -13.707031 8.421875 -13.46875 C 7.960938 -13.226562 7.734375 -12.941406 7.734375 -12.609375 C 7.734375 -12.285156 7.941406 -12.03125 8.359375 -11.84375 C 8.785156 -11.65625 9.484375 -11.445312 10.453125 -11.21875 C 11.617188 -10.945312 12.597656 -10.65625 13.390625 -10.34375 C 14.191406 -10.03125 14.882812 -9.546875 15.46875 -8.890625 C 16.0625 -8.242188 16.359375 -7.382812 16.359375 -6.3125 C 16.359375 -4.976562 15.988281 -3.800781 15.25 -2.78125 C 14.507812 -1.769531 13.453125 -0.984375 12.078125 -0.421875 C 10.703125 0.128906 9.082031 0.40625 7.21875 0.40625 Z M 7.21875 0.40625 "/></g></g></g><g fill="#f68712" fill-opacity="1"><g transform="translate(178.202238, 89.062189)"><g><path d="M 21.46875 -18.0625 L 17.84375 0 L 11.765625 0 L 13.109375 -6.65625 L 7.484375 -6.65625 L 6.140625 0 L 0.046875 0 L 3.65625 -18.0625 L 9.75 -18.0625 L 8.46875 -11.65625 L 14.078125 -11.65625 L 15.375 -18.0625 Z M 21.46875 -18.0625 "/></g></g></g><g fill="#f68712" fill-opacity="1"><g transform="translate(198.935744, 89.062189)"><g><path d="M 10.21875 0.40625 C 8.375 0.40625 6.757812 0.0664062 5.375 -0.609375 C 3.988281 -1.285156 2.921875 -2.234375 2.171875 -3.453125 C 1.429688 -4.671875 1.0625 -6.070312 1.0625 -7.65625 C 1.0625 -9.757812 1.546875 -11.628906 2.515625 -13.265625 C 3.484375 -14.910156 4.832031 -16.1875 6.5625 -17.09375 C 8.289062 -18.007812 10.25 -18.46875 12.4375 -18.46875 C 14.269531 -18.46875 15.878906 -18.128906 17.265625 -17.453125 C 18.648438 -16.773438 19.71875 -15.820312 20.46875 -14.59375 C 21.21875 -13.375 21.59375 -11.972656 21.59375 -10.390625 C 21.59375 -8.296875 21.101562 -6.425781 20.125 -4.78125 C 19.15625 -3.144531 17.804688 -1.867188 16.078125 -0.953125 C 14.347656 -0.046875 12.394531 0.40625 10.21875 0.40625 Z M 10.734375 -4.515625 C 11.691406 -4.515625 12.523438 -4.765625 13.234375 -5.265625 C 13.953125 -5.765625 14.5 -6.429688 14.875 -7.265625 C 15.257812 -8.109375 15.453125 -9.03125 15.453125 -10.03125 C 15.453125 -11.101562 15.132812 -11.957031 14.5 -12.59375 C 13.875 -13.226562 13.015625 -13.546875 11.921875 -13.546875 C 10.953125 -13.546875 10.109375 -13.296875 9.390625 -12.796875 C 8.679688 -12.296875 8.140625 -11.625 7.765625 -10.78125 C 7.390625 -9.9375 7.203125 -9.015625 7.203125 -8.015625 C 7.203125 -6.953125 7.515625 -6.101562 8.140625 -5.46875 C 8.765625 -4.832031 9.628906 -4.515625 10.734375 -4.515625 Z M 10.734375 -4.515625 "/></g></g></g><g fill="#f68712" fill-opacity="1"><g transform="translate(220.803923, 89.062189)"><g><path d="M 11.6875 -18.0625 C 14.09375 -18.0625 15.957031 -17.535156 17.28125 -16.484375 C 18.601562 -15.429688 19.265625 -13.960938 19.265625 -12.078125 C 19.265625 -10.554688 18.890625 -9.21875 18.140625 -8.0625 C 17.398438 -6.914062 16.335938 -6.023438 14.953125 -5.390625 C 13.566406 -4.753906 11.960938 -4.4375 10.140625 -4.4375 L 7.015625 -4.4375 L 6.140625 0 L 0.046875 0 L 3.65625 -18.0625 Z M 10.453125 -9.125 C 11.296875 -9.125 11.945312 -9.332031 12.40625 -9.75 C 12.875 -10.175781 13.109375 -10.769531 13.109375 -11.53125 C 13.109375 -12.75 12.347656 -13.359375 10.828125 -13.359375 L 8.796875 -13.359375 L 7.953125 -9.125 Z M 10.453125 -9.125 "/></g></g></g><g fill="#f68712" fill-opacity="1"><g transform="translate(239.964363, 89.062189)"><g><path d="M 11.6875 -18.0625 C 14.09375 -18.0625 15.957031 -17.535156 17.28125 -16.484375 C 18.601562 -15.429688 19.265625 -13.960938 19.265625 -12.078125 C 19.265625 -10.554688 18.890625 -9.21875 18.140625 -8.0625 C 17.398438 -6.914062 16.335938 -6.023438 14.953125 -5.390625 C 13.566406 -4.753906 11.960938 -4.4375 10.140625 -4.4375 L 7.015625 -4.4375 L 6.140625 0 L 0.046875 0 L 3.65625 -18.0625 Z M 10.453125 -9.125 C 11.296875 -9.125 11.945312 -9.332031 12.40625 -9.75 C 12.875 -10.175781 13.109375 -10.769531 13.109375 -11.53125 C 13.109375 -12.75 12.347656 -13.359375 10.828125 -13.359375 L 8.796875 -13.359375 L 7.953125 -9.125 Z M 10.453125 -9.125 "/></g></g></g><g fill="#f68712" fill-opacity="1"><g transform="translate(259.124799, 89.062189)"><g><path d="M 3.65625 -18.0625 L 9.75 -18.0625 L 6.140625 0 L 0.046875 0 Z M 3.65625 -18.0625 "/></g></g></g><g fill="#f68712" fill-opacity="1"><g transform="translate(268.150582, 89.062189)"><g><path d="M 21.46875 -18.0625 L 17.84375 0 L 12.84375 0 L 7.65625 -8.40625 L 5.984375 0 L 0.046875 0 L 3.65625 -18.0625 L 8.671875 -18.0625 L 13.859375 -9.640625 L 15.53125 -18.0625 Z M 21.46875 -18.0625 "/></g></g></g><g fill="#f68712" fill-opacity="1"><g transform="translate(288.884088, 89.062189)"><g><path d="M 13.90625 -9.515625 L 19.1875 -9.515625 L 17.640625 -1.734375 C 16.679688 -1.046875 15.578125 -0.515625 14.328125 -0.140625 C 13.078125 0.222656 11.738281 0.40625 10.3125 0.40625 C 8.476562 0.40625 6.859375 0.0664062 5.453125 -0.609375 C 4.054688 -1.285156 2.972656 -2.234375 2.203125 -3.453125 C 1.441406 -4.671875 1.0625 -6.070312 1.0625 -7.65625 C 1.0625 -9.757812 1.550781 -11.625 2.53125 -13.25 C 3.507812 -14.882812 4.875 -16.160156 6.625 -17.078125 C 8.382812 -18.003906 10.398438 -18.46875 12.671875 -18.46875 C 16.421875 -18.46875 19.15625 -17.289062 20.875 -14.9375 L 16.515625 -11.5625 C 15.941406 -12.28125 15.328125 -12.789062 14.671875 -13.09375 C 14.023438 -13.394531 13.257812 -13.546875 12.375 -13.546875 C 11.332031 -13.546875 10.421875 -13.3125 9.640625 -12.84375 C 8.859375 -12.382812 8.253906 -11.734375 7.828125 -10.890625 C 7.410156 -10.054688 7.203125 -9.109375 7.203125 -8.046875 C 7.203125 -6.984375 7.550781 -6.128906 8.25 -5.484375 C 8.957031 -4.835938 9.929688 -4.515625 11.171875 -4.515625 C 11.785156 -4.515625 12.378906 -4.597656 12.953125 -4.765625 Z M 13.90625 -9.515625 "/></g></g></g></svg>