<svg xmlns="http://www.w3.org/2000/svg" xmlns:xlink="http://www.w3.org/1999/xlink" width="940" zoomAndPan="magnify" viewBox="0 0 705 591.000005" height="788" preserveAspectRatio="xMidYMid meet" version="1.0"><defs><clipPath id="553556cc8d"><path d="M 0.59375 0 L 704.402344 0 L 704.402344 590 L 0.59375 590 Z M 0.59375 0 " clip-rule="nonzero"/></clipPath></defs><path fill="#e1d7f7" d="M 595.476562 566.808594 C 595.476562 573.105469 539.964844 578.210938 471.484375 578.210938 C 403.011719 578.210938 347.496094 573.105469 347.496094 566.808594 C 347.496094 560.515625 403.011719 555.410156 471.484375 555.410156 C 539.964844 555.410156 595.476562 560.515625 595.476562 566.808594 " fill-opacity="1" fill-rule="nonzero"/><path fill="#e1d7f7" d="M 348.921875 566.808594 C 348.921875 574.703125 279.34375 581.097656 193.523438 581.097656 C 107.695312 581.097656 38.121094 574.703125 38.121094 566.808594 C 38.121094 558.917969 107.695312 552.523438 193.523438 552.523438 C 279.34375 552.523438 348.921875 558.917969 348.921875 566.808594 " fill-opacity="1" fill-rule="nonzero"/><path fill="#e1d7f7" d="M 591.546875 291.410156 C 590.316406 288.726562 590.546875 285.542969 598.523438 279.148438 C 614.558594 266.289062 635.1875 281.949219 635.277344 291.960938 C 635.296875 294.089844 633.773438 291.269531 631.953125 292.476562 C 622.257812 298.917969 594.734375 298.335938 591.546875 291.410156 " fill-opacity="1" fill-rule="nonzero"/><path fill="#e1d7f7" d="M 608.253906 240.390625 C 612.195312 243.957031 621.496094 236.097656 625.402344 227.621094 C 625.402344 227.621094 633.574219 211.433594 617.082031 196.957031 C 616.007812 196.015625 615.914062 195.242188 615.742188 195.601562 C 614.882812 197.429688 612.613281 197.523438 609.808594 202.992188 C 607.832031 206.839844 596.75 229.980469 608.253906 240.390625 " fill-opacity="1" fill-rule="nonzero"/><path fill="#e1d7f7" d="M 603.769531 264.976562 C 605.265625 267.726562 613.980469 265.480469 628.664062 261.6875 C 628.664062 261.6875 635.425781 259.945312 645.632812 254.96875 C 649.886719 252.890625 650.507812 251.621094 650.507812 251.621094 C 650.300781 249.085938 638.160156 247.171875 627.226562 248.667969 C 622.253906 249.34375 614.253906 250.550781 608.125 256.894531 C 606.914062 258.148438 602.527344 262.6875 603.769531 264.976562 " fill-opacity="1" fill-rule="nonzero"/><path fill="#e1d7f7" d="M 595.707031 263.269531 C 593.1875 263.207031 592.867188 259.042969 586.519531 244.632812 C 583.050781 236.757812 580.082031 231.058594 580.851562 223.21875 C 581.222656 219.421875 582.09375 218.578125 582.683594 218.363281 C 584.660156 217.65625 594.089844 224.394531 598.425781 231.839844 C 600.292969 235.050781 604.730469 242.664062 602.84375 251.84375 C 601.898438 256.433594 598.976562 263.34375 595.707031 263.269531 " fill-opacity="1" fill-rule="nonzero"/><path fill="#e1d7f7" d="M 563.523438 240.5625 C 564.382812 238.917969 586.925781 243.0625 590.054688 272.839844 C 590.796875 279.933594 585.875 288.90625 584.367188 287.203125 C 578.371094 280.457031 563.699219 265.28125 564.804688 243.085938 C 564.929688 240.507812 563.070312 241.433594 563.523438 240.5625 " fill-opacity="1" fill-rule="nonzero"/><path fill="#e1d7f7" d="M 585.007812 286.101562 C 584.722656 286.070312 584.492188 285.839844 584.46875 285.539062 C 583.910156 276.941406 580.796875 264.648438 575.085938 256.550781 C 574.890625 256.273438 574.957031 255.898438 575.234375 255.703125 C 575.503906 255.511719 575.886719 255.574219 576.074219 255.851562 C 581.921875 264.140625 585.113281 276.695312 585.683594 285.460938 C 585.703125 285.796875 585.449219 286.085938 585.113281 286.105469 C 585.082031 286.109375 585.042969 286.109375 585.007812 286.101562 " fill-opacity="1" fill-rule="nonzero"/><path fill="#e1d7f7" d="M 588.449219 289.832031 C 588.242188 289.808594 588.046875 289.675781 587.957031 289.46875 C 587.828125 289.164062 587.964844 288.804688 588.277344 288.671875 C 599.09375 283.984375 614.136719 283.332031 624.246094 284.765625 C 624.570312 284.8125 624.804688 285.121094 624.757812 285.453125 C 624.710938 285.785156 624.402344 286.015625 624.074219 285.96875 C 614.136719 284.558594 599.355469 285.191406 588.757812 289.785156 C 588.65625 289.828125 588.550781 289.84375 588.449219 289.832031 " fill-opacity="1" fill-rule="nonzero"/><path fill="#e1d7f7" d="M 597.28125 265.296875 C 596.976562 265.265625 596.738281 265 596.742188 264.683594 C 596.914062 256.070312 594.84375 243.554688 589.84375 235.003906 C 589.679688 234.714844 589.769531 234.339844 590.0625 234.171875 C 590.351562 234.003906 590.722656 234.097656 590.890625 234.390625 C 596.011719 243.144531 598.128906 255.925781 597.957031 264.707031 C 597.953125 265.042969 597.671875 265.308594 597.34375 265.300781 C 597.320312 265.300781 597.300781 265.300781 597.28125 265.296875 " fill-opacity="1" fill-rule="nonzero"/><path fill="#e1d7f7" d="M 601.535156 266.675781 C 601.394531 266.660156 601.257812 266.59375 601.152344 266.480469 C 600.929688 266.230469 600.953125 265.847656 601.199219 265.621094 C 608.734375 258.832031 620.816406 254.171875 629.449219 252.566406 C 629.777344 252.503906 630.097656 252.71875 630.160156 253.050781 C 630.222656 253.378906 630 253.695312 629.671875 253.757812 C 621.210938 255.335938 609.371094 259.890625 602.007812 266.523438 C 601.875 266.644531 601.703125 266.695312 601.535156 266.675781 " fill-opacity="1" fill-rule="nonzero"/><path fill="#e1d7f7" d="M 554.53125 323.878906 C 554.390625 323.859375 554.25 323.796875 554.152344 323.679688 C 553.925781 323.433594 553.945312 323.046875 554.195312 322.820312 C 579.476562 300.125 604.453125 271.429688 615.945312 215.617188 C 616.015625 215.289062 616.332031 215.078125 616.664062 215.144531 C 616.996094 215.210938 617.207031 215.535156 617.140625 215.863281 C 611.800781 241.773438 603.320312 263.570312 591.203125 282.5 C 579.632812 300.582031 566.410156 313.488281 555.007812 323.726562 C 554.871094 323.847656 554.695312 323.894531 554.53125 323.878906 " fill-opacity="1" fill-rule="nonzero"/><path fill="#e1d7f7" d="M 193.636719 247.695312 C 191.382812 247.671875 189.273438 246.472656 187.472656 238.90625 C 183.851562 223.691406 201.328125 214.601562 208.246094 217.800781 C 209.714844 218.476562 207.28125 218.609375 207.519531 220.25 C 208.785156 229.019531 199.429688 247.757812 193.636719 247.695312 " fill-opacity="1" fill-rule="nonzero"/><path fill="#e1d7f7" d="M 164 219.597656 C 167.730469 218.046875 165.355469 209.09375 160.800781 203.648438 C 160.800781 203.648438 152.335938 192.757812 137.011719 199.386719 C 136.015625 199.824219 135.453125 199.636719 135.644531 199.867188 C 136.621094 201.054688 135.945312 202.644531 138.792969 206.355469 C 140.796875 208.96875 153.097656 224.125 164 219.597656 " fill-opacity="1" fill-rule="nonzero"/><path fill="#e1d7f7" d="M 179.4375 230.679688 C 181.816406 230.550781 183.109375 223.824219 185.28125 212.492188 C 185.28125 212.492188 186.285156 207.273438 186.183594 198.636719 C 186.140625 195.03125 185.46875 194.195312 185.46875 194.195312 C 183.664062 193.507812 178.394531 201.238281 175.859375 209.246094 C 174.710938 212.886719 172.933594 218.78125 175.300781 225.058594 C 175.769531 226.296875 177.464844 230.792969 179.4375 230.679688 " fill-opacity="1" fill-rule="nonzero"/><path fill="#e1d7f7" d="M 175.640625 235.671875 C 174.777344 237.390625 171.808594 236.253906 159.839844 235.929688 C 153.296875 235.753906 148.414062 235.933594 143.273438 232.855469 C 140.785156 231.367188 140.488281 230.492188 140.53125 230.015625 C 140.691406 228.425781 148.390625 224.132812 154.917969 223.574219 C 157.738281 223.332031 164.414062 222.761719 170.109375 227.050781 C 172.957031 229.191406 176.757812 233.453125 175.640625 235.671875 " fill-opacity="1" fill-rule="nonzero"/><path fill="#e1d7f7" d="M 149.554688 250.417969 C 148.703125 249.289062 158.890625 235.132812 180.378906 242.675781 C 185.496094 244.46875 190.0625 250.78125 188.402344 251.265625 C 181.8125 253.195312 166.605469 258.339844 151.707031 250.359375 C 149.976562 249.433594 150.007812 251.015625 149.554688 250.417969 " fill-opacity="1" fill-rule="nonzero"/><path fill="#e1d7f7" d="M 187.855469 250.460938 C 187.738281 250.652344 187.503906 250.734375 187.292969 250.652344 C 181.203125 248.238281 171.734375 246.378906 164.308594 247.671875 C 164.058594 247.710938 163.820312 247.546875 163.773438 247.292969 C 163.730469 247.039062 163.898438 246.800781 164.152344 246.761719 C 171.753906 245.4375 181.421875 247.328125 187.632812 249.792969 C 187.871094 249.886719 187.984375 250.152344 187.890625 250.390625 C 187.882812 250.414062 187.871094 250.441406 187.855469 250.460938 " fill-opacity="1" fill-rule="nonzero"/><path fill="#e1d7f7" d="M 191.539062 249.3125 C 191.453125 249.449219 191.300781 249.539062 191.128906 249.53125 C 190.875 249.523438 190.675781 249.3125 190.683594 249.054688 C 190.980469 240.089844 195.429688 229.535156 199.707031 223.046875 C 199.847656 222.835938 200.132812 222.773438 200.34375 222.917969 C 200.558594 223.058594 200.617188 223.34375 200.476562 223.554688 C 196.273438 229.929688 191.898438 240.296875 191.605469 249.085938 C 191.601562 249.167969 191.578125 249.246094 191.539062 249.3125 " fill-opacity="1" fill-rule="nonzero"/><path fill="#e1d7f7" d="M 177.546875 235.25 C 177.421875 235.449219 177.164062 235.527344 176.949219 235.421875 C 171.085938 232.5 161.808594 229.847656 154.300781 230.503906 C 154.046875 230.527344 153.824219 230.335938 153.800781 230.085938 C 153.777344 229.828125 153.964844 229.605469 154.21875 229.585938 C 161.90625 228.910156 171.382812 231.613281 177.359375 234.59375 C 177.589844 234.703125 177.683594 234.984375 177.570312 235.210938 C 177.5625 235.222656 177.554688 235.234375 177.546875 235.25 " fill-opacity="1" fill-rule="nonzero"/><path fill="#e1d7f7" d="M 179.878906 232.773438 C 179.820312 232.863281 179.734375 232.9375 179.621094 232.972656 C 179.375 233.042969 179.117188 232.90625 179.042969 232.664062 C 176.828125 225.269531 177.558594 215.441406 179.265625 208.980469 C 179.328125 208.734375 179.582031 208.585938 179.832031 208.652344 C 180.078125 208.714844 180.222656 208.96875 180.15625 209.214844 C 178.484375 215.550781 177.765625 225.175781 179.929688 232.394531 C 179.96875 232.53125 179.949219 232.664062 179.878906 232.773438 " fill-opacity="1" fill-rule="nonzero"/><path fill="#e1d7f7" d="M 203.902344 283.71875 C 203.84375 283.808594 203.753906 283.886719 203.640625 283.917969 C 203.398438 283.992188 203.140625 283.851562 203.066406 283.605469 C 195.691406 258.832031 184.097656 232.3125 149.472656 206.242188 C 149.269531 206.085938 149.226562 205.800781 149.382812 205.59375 C 149.535156 205.386719 149.824219 205.347656 150.027344 205.5 C 166.101562 217.605469 178.324219 230.535156 187.394531 245.027344 C 196.058594 258.875 200.625 272.164062 203.953125 283.34375 C 203.992188 283.476562 203.96875 283.609375 203.902344 283.71875 " fill-opacity="1" fill-rule="nonzero"/><path fill="#e1d7f7" d="M 568.996094 402.222656 L 205.085938 402.222656 C 198.289062 402.222656 192.78125 396.328125 192.78125 389.054688 L 192.78125 57.042969 C 192.78125 49.769531 198.289062 43.871094 205.085938 43.871094 L 568.996094 43.871094 C 575.789062 43.871094 581.300781 49.769531 581.300781 57.042969 L 581.300781 389.054688 C 581.300781 396.328125 575.789062 402.222656 568.996094 402.222656 " fill-opacity="1" fill-rule="nonzero"/><path fill="#282444" d="M 205.558594 49.257812 C 202.511719 49.257812 200.03125 51.738281 200.03125 54.789062 L 200.03125 391.292969 C 200.03125 394.34375 202.511719 396.820312 205.558594 396.820312 L 569.503906 396.820312 C 572.550781 396.820312 575.035156 394.34375 575.035156 391.292969 L 575.035156 54.789062 C 575.035156 51.738281 572.550781 49.257812 569.503906 49.257812 Z M 569.503906 410.386719 L 205.558594 410.386719 C 195.035156 410.386719 186.472656 401.824219 186.472656 391.292969 L 186.472656 54.789062 C 186.472656 44.261719 195.035156 35.695312 205.558594 35.695312 L 569.503906 35.695312 C 580.03125 35.695312 588.59375 44.261719 588.59375 54.789062 L 588.59375 391.292969 C 588.59375 401.824219 580.03125 410.386719 569.503906 410.386719 " fill-opacity="1" fill-rule="nonzero"/><path fill="#ffffff" d="M 321.742188 281.105469 L 216.703125 281.105469 C 214.054688 281.105469 211.90625 278.960938 211.90625 276.3125 L 211.90625 129.695312 C 211.90625 127.046875 214.054688 124.898438 216.703125 124.898438 L 321.742188 124.898438 C 324.386719 124.898438 326.535156 127.046875 326.535156 129.695312 L 326.535156 276.3125 C 326.535156 278.960938 324.386719 281.105469 321.742188 281.105469 " fill-opacity="1" fill-rule="nonzero"/><path fill="#ffbcb0" d="M 322.777344 132.976562 C 322.777344 135.824219 320.46875 138.128906 317.621094 138.128906 C 314.777344 138.128906 312.472656 135.824219 312.472656 132.976562 C 312.472656 130.128906 314.777344 127.820312 317.621094 127.820312 C 320.46875 127.820312 322.777344 130.128906 322.777344 132.976562 " fill-opacity="1" fill-rule="nonzero"/><path fill="#ffffff" d="M 318.394531 132.976562 L 320.328125 131.039062 C 320.539062 130.828125 320.539062 130.484375 320.328125 130.273438 C 320.113281 130.058594 319.769531 130.058594 319.558594 130.273438 L 317.621094 132.207031 L 315.6875 130.273438 C 315.476562 130.058594 315.132812 130.058594 314.921875 130.273438 C 314.707031 130.484375 314.707031 130.828125 314.921875 131.039062 L 316.855469 132.976562 L 314.921875 134.910156 C 314.707031 135.125 314.707031 135.46875 314.921875 135.683594 C 315.027344 135.789062 315.167969 135.839844 315.308594 135.839844 C 315.441406 135.839844 315.582031 135.789062 315.6875 135.683594 L 317.621094 133.746094 L 319.558594 135.683594 C 319.664062 135.789062 319.804688 135.839844 319.945312 135.839844 C 320.085938 135.839844 320.222656 135.789062 320.328125 135.683594 C 320.539062 135.46875 320.539062 135.125 320.328125 134.910156 L 318.394531 132.976562 " fill-opacity="1" fill-rule="nonzero"/><path fill="#ffffff" d="M 321.742188 389.679688 L 216.703125 389.679688 C 214.054688 389.679688 211.90625 387.53125 211.90625 384.878906 L 211.90625 287.863281 C 211.90625 285.214844 214.054688 283.066406 216.703125 283.066406 L 321.742188 283.066406 C 324.386719 283.066406 326.535156 285.214844 326.535156 287.863281 L 326.535156 384.878906 C 326.535156 387.53125 324.386719 389.679688 321.742188 389.679688 " fill-opacity="1" fill-rule="nonzero"/><path fill="#ffbcb0" d="M 265.210938 243.710938 C 265.210938 245.078125 264.101562 246.183594 262.730469 246.183594 C 261.367188 246.183594 260.257812 245.078125 260.257812 243.710938 C 260.257812 242.34375 261.367188 241.234375 262.730469 241.234375 C 264.101562 241.234375 265.210938 242.34375 265.210938 243.710938 " fill-opacity="1" fill-rule="nonzero"/><path fill="#eb9e94" d="M 273.554688 243.710938 C 273.554688 245.078125 272.449219 246.183594 271.082031 246.183594 C 269.714844 246.183594 268.605469 245.078125 268.605469 243.710938 C 268.605469 242.34375 269.714844 241.234375 271.082031 241.234375 C 272.449219 241.234375 273.554688 242.34375 273.554688 243.710938 " fill-opacity="1" fill-rule="nonzero"/><path fill="#ffbcb0" d="M 281.90625 243.710938 C 281.90625 245.078125 280.792969 246.183594 279.429688 246.183594 C 278.0625 246.183594 276.953125 245.078125 276.953125 243.710938 C 276.953125 242.34375 278.0625 241.234375 279.429688 241.234375 C 280.792969 241.234375 281.90625 242.34375 281.90625 243.710938 " fill-opacity="1" fill-rule="nonzero"/><path fill="#ffbcb0" d="M 315.351562 200.21875 C 313.058594 175.398438 311.253906 170.375 306.824219 154.808594 C 305.722656 150.933594 301.390625 144.277344 296.371094 140.5 C 295.066406 139.519531 287.054688 136.773438 283.792969 135.820312 C 282.957031 135.578125 282.109375 135.789062 281.347656 136.203125 C 278.683594 137.648438 268.539062 139.589844 261.847656 136.203125 C 261.074219 135.8125 260.234375 135.578125 259.398438 135.820312 C 256.140625 136.773438 248.125 139.519531 246.824219 140.5 C 241.804688 144.277344 237.472656 150.933594 236.367188 154.808594 C 231.941406 170.375 230.140625 175.398438 227.839844 200.21875 C 226.765625 211.808594 226.632812 222.554688 226.621094 225.949219 C 226.617188 226.5625 227.109375 227.0625 227.722656 227.066406 L 237.769531 227.121094 C 238.324219 227.125 238.800781 226.722656 238.878906 226.171875 C 239.277344 223.398438 240.503906 215.078125 241.875 207.390625 C 244.875 190.585938 246.25 185.769531 246.785156 185.644531 C 247.328125 185.511719 247.40625 195.382812 246.738281 208.1875 C 246.324219 216.179688 246.136719 219.90625 246.054688 221.566406 C 246.019531 222.238281 246.546875 222.800781 247.222656 222.8125 C 252.546875 222.941406 290.648438 222.941406 295.96875 222.8125 C 296.644531 222.800781 297.171875 222.238281 297.136719 221.566406 C 297.058594 219.90625 296.871094 216.179688 296.453125 208.1875 C 295.785156 195.382812 295.863281 185.511719 296.414062 185.644531 C 296.949219 185.769531 298.320312 190.585938 301.320312 207.390625 C 302.695312 215.078125 303.917969 223.398438 304.316406 226.171875 C 304.398438 226.722656 304.867188 227.125 305.425781 227.121094 L 315.46875 227.066406 C 316.082031 227.0625 316.578125 226.5625 316.574219 225.949219 C 316.5625 222.554688 316.425781 211.808594 315.351562 200.21875 " fill-opacity="1" fill-rule="nonzero"/><path fill="#eb9e94" d="M 261.546875 139.519531 C 261.542969 139.550781 261.542969 139.582031 261.542969 139.613281 C 261.542969 145.035156 266.054688 149.449219 271.597656 149.449219 C 277.140625 149.449219 281.648438 145.035156 281.648438 139.613281 C 281.648438 139.582031 281.648438 139.550781 281.648438 139.519531 C 278.261719 141.085938 268.371094 142.753906 261.546875 139.519531 Z M 271.597656 152.308594 C 264.476562 152.308594 258.6875 146.613281 258.6875 139.613281 C 258.6875 138.867188 258.761719 138.101562 258.898438 137.347656 C 259.027344 136.628906 259.683594 136.125 260.40625 136.179688 C 261.074219 136.226562 261.757812 136.433594 262.492188 136.804688 C 268.679688 139.933594 278.417969 138.046875 280.664062 136.820312 C 281.378906 136.433594 282.097656 136.21875 282.800781 136.171875 C 283.515625 136.125 284.164062 136.628906 284.296875 137.339844 C 284.433594 138.097656 284.503906 138.863281 284.503906 139.613281 C 284.503906 146.613281 278.714844 152.308594 271.597656 152.308594 " fill-opacity="1" fill-rule="nonzero"/><path fill="#ffffff" d="M 305.761719 151.5 L 294.910156 159.707031 L 248.109375 159.707031 L 236.96875 153.027344 C 236.539062 153.964844 236.210938 154.84375 235.996094 155.613281 C 235.972656 155.699219 235.949219 155.785156 235.925781 155.871094 L 247.328125 162.710938 L 295.855469 162.710938 L 307.035156 154.253906 C 306.707031 153.402344 306.277344 152.472656 305.761719 151.5 " fill-opacity="1" fill-rule="nonzero"/><path fill="#ffffff" d="M 439.101562 256.410156 L 334.0625 256.410156 C 331.414062 256.410156 329.265625 254.261719 329.265625 251.613281 L 329.265625 129.695312 C 329.265625 127.042969 331.414062 124.898438 334.0625 124.898438 L 439.101562 124.898438 C 441.75 124.898438 443.894531 127.042969 443.894531 129.695312 L 443.894531 251.613281 C 443.894531 254.261719 441.75 256.410156 439.101562 256.410156 " fill-opacity="1" fill-rule="nonzero"/><path fill="#ffbcb0" d="M 418.378906 159.273438 L 358.960938 153.679688 C 358.761719 153.664062 358.566406 153.691406 358.382812 153.777344 C 357.835938 154.03125 357.234375 154.492188 357.285156 155.023438 L 361.484375 197.394531 C 361.539062 197.976562 361.960938 198.457031 362.53125 198.585938 L 404.3125 208.1875 C 404.730469 208.28125 405.171875 208.179688 405.496094 207.902344 L 413.492188 201.15625 C 413.746094 200.941406 413.914062 200.636719 413.960938 200.308594 L 419.597656 160.824219 C 419.703125 160.054688 419.152344 159.351562 418.378906 159.273438 " fill-opacity="1" fill-rule="nonzero"/><path fill="#ffffff" d="M 414.59375 162.019531 C 414.519531 162.019531 414.449219 162.019531 414.375 162.015625 C 400.539062 161.023438 379.171875 158.421875 358.511719 155.902344 C 358.222656 155.871094 358.015625 155.605469 358.050781 155.316406 C 358.085938 155.027344 358.34375 154.828125 358.636719 154.859375 C 379.285156 157.375 400.640625 159.976562 414.453125 160.964844 C 415.449219 161.042969 417.429688 160.371094 418.449219 159.964844 C 418.71875 159.863281 419.027344 159.996094 419.132812 160.261719 C 419.242188 160.53125 419.109375 160.839844 418.839844 160.945312 C 418.367188 161.132812 416.035156 162.019531 414.59375 162.019531 " fill-opacity="1" fill-rule="nonzero"/><path fill="#ffbcb0" d="M 381.671875 155.90625 C 381.226562 152.527344 380.945312 143.398438 384.703125 139.957031 C 387.898438 137.039062 392.589844 138.046875 394.394531 139.238281 C 396.941406 140.914062 398.410156 143.542969 399.304688 148.015625 C 399.921875 151.097656 400.117188 153.949219 400.265625 156.03125 C 400.308594 156.648438 400.347656 157.1875 400.386719 157.667969 L 401.835938 157.804688 C 401.785156 157.28125 401.742188 156.65625 401.6875 155.933594 C 401.542969 153.8125 401.339844 150.90625 400.703125 147.734375 C 400.015625 144.289062 398.824219 140.445312 395.179688 138.046875 C 393.269531 136.785156 387.734375 135.25 383.738281 138.902344 C 379.160156 143.09375 379.980469 153.507812 380.21875 155.769531 L 381.671875 155.90625 " fill-opacity="1" fill-rule="nonzero"/><path fill="#eb9e94" d="M 394.207031 165.15625 C 394.152344 165.15625 394.097656 165.152344 394.042969 165.140625 C 393.558594 165.054688 393.238281 164.589844 393.324219 164.101562 L 393.367188 163.882812 C 394.230469 159.167969 395.125 154.292969 395.195312 148.125 C 395.242188 144.011719 393.511719 141.320312 392.765625 140.355469 C 392.339844 139.796875 391.03125 138.101562 388.46875 137.667969 C 385.160156 137.105469 383.039062 138.09375 382.066406 138.726562 C 380.257812 139.910156 378.347656 142.617188 377.785156 143.804688 C 375.285156 149.078125 374.324219 155.085938 373.6875 159.058594 C 373.539062 159.96875 373.414062 160.757812 373.292969 161.402344 C 373.199219 161.886719 372.730469 162.203125 372.246094 162.109375 C 371.761719 162.019531 371.445312 161.546875 371.539062 161.0625 C 371.660156 160.445312 371.78125 159.671875 371.925781 158.773438 C 372.574219 154.703125 373.558594 148.546875 376.171875 143.042969 C 376.796875 141.730469 378.871094 138.679688 381.082031 137.238281 C 383.148438 135.886719 385.875 135.417969 388.765625 135.90625 C 390.921875 136.273438 392.746094 137.402344 394.183594 139.265625 C 395.039062 140.378906 397.03125 143.476562 396.980469 148.144531 C 396.90625 154.464844 396 159.414062 395.121094 164.203125 L 395.082031 164.425781 C 395.003906 164.855469 394.628906 165.15625 394.207031 165.15625 " fill-opacity="1" fill-rule="nonzero"/><path fill="#ffbcb0" d="M 400.445312 242.46875 L 376.4375 242.46875 C 373.054688 242.46875 370.316406 239.726562 370.316406 236.34375 L 370.316406 234.347656 C 370.316406 230.964844 373.054688 228.222656 376.4375 228.222656 L 400.445312 228.222656 C 403.832031 228.222656 406.570312 230.964844 406.570312 234.347656 L 406.570312 236.34375 C 406.570312 239.726562 403.832031 242.46875 400.445312 242.46875 " fill-opacity="1" fill-rule="nonzero"/><path fill="#ffbcb0" d="M 382.570312 218.929688 C 382.570312 220.300781 381.464844 221.410156 380.097656 221.410156 C 378.730469 221.410156 377.621094 220.300781 377.621094 218.929688 C 377.621094 217.5625 378.730469 216.457031 380.097656 216.457031 C 381.464844 216.457031 382.570312 217.5625 382.570312 218.929688 " fill-opacity="1" fill-rule="nonzero"/><path fill="#eb9e94" d="M 390.921875 218.929688 C 390.921875 220.300781 389.8125 221.410156 388.441406 221.410156 C 387.074219 221.410156 385.96875 220.300781 385.96875 218.929688 C 385.96875 217.5625 387.074219 216.457031 388.441406 216.457031 C 389.8125 216.457031 390.921875 217.5625 390.921875 218.929688 " fill-opacity="1" fill-rule="nonzero"/><path fill="#ffbcb0" d="M 399.265625 218.929688 C 399.265625 220.300781 398.15625 221.410156 396.792969 221.410156 C 395.425781 221.410156 394.316406 220.300781 394.316406 218.929688 C 394.316406 217.5625 395.425781 216.457031 396.792969 216.457031 C 398.15625 216.457031 399.265625 217.5625 399.265625 218.929688 " fill-opacity="1" fill-rule="nonzero"/><path fill="#ffbcb0" d="M 439.089844 132.972656 C 439.089844 135.820312 436.785156 138.128906 433.9375 138.128906 C 431.085938 138.128906 428.78125 135.820312 428.78125 132.972656 C 428.78125 130.125 431.085938 127.820312 433.9375 127.820312 C 436.785156 127.820312 439.089844 130.125 439.089844 132.972656 " fill-opacity="1" fill-rule="nonzero"/><path fill="#ffffff" d="M 434.699219 132.980469 L 436.632812 131.042969 C 436.84375 130.832031 436.84375 130.488281 436.632812 130.273438 C 436.421875 130.0625 436.078125 130.0625 435.867188 130.273438 L 433.929688 132.207031 L 431.996094 130.273438 C 431.785156 130.0625 431.441406 130.0625 431.226562 130.273438 C 431.015625 130.488281 431.015625 130.832031 431.226562 131.042969 L 433.160156 132.980469 L 431.226562 134.914062 C 431.015625 135.128906 431.015625 135.46875 431.226562 135.6875 C 431.332031 135.789062 431.472656 135.84375 431.613281 135.84375 C 431.753906 135.84375 431.890625 135.789062 431.996094 135.6875 L 433.929688 133.75 L 435.867188 135.6875 C 435.972656 135.789062 436.109375 135.84375 436.25 135.84375 C 436.390625 135.84375 436.527344 135.789062 436.632812 135.6875 C 436.84375 135.46875 436.84375 135.128906 436.632812 134.914062 L 434.699219 132.980469 " fill-opacity="1" fill-rule="nonzero"/><path fill="#ffffff" d="M 556.402344 281.988281 L 451.363281 281.988281 C 448.714844 281.988281 446.566406 279.84375 446.566406 277.195312 L 446.566406 129.691406 C 446.566406 127.042969 448.714844 124.894531 451.363281 124.894531 L 556.402344 124.894531 C 559.046875 124.894531 561.195312 127.042969 561.195312 129.691406 L 561.195312 277.195312 C 561.195312 279.84375 559.046875 281.988281 556.402344 281.988281 " fill-opacity="1" fill-rule="nonzero"/><path fill="#ffbcb0" d="M 516.246094 266.191406 L 492.238281 266.191406 C 488.855469 266.191406 486.113281 263.445312 486.113281 260.066406 L 486.113281 258.066406 C 486.113281 254.683594 488.855469 251.941406 492.238281 251.941406 L 516.246094 251.941406 C 519.628906 251.941406 522.367188 254.683594 522.367188 258.066406 L 522.367188 260.066406 C 522.367188 263.445312 519.628906 266.191406 516.246094 266.191406 " fill-opacity="1" fill-rule="nonzero"/><path fill="#ffbcb0" d="M 498.371094 242.125 C 498.371094 243.492188 497.257812 244.601562 495.890625 244.601562 C 494.527344 244.601562 493.417969 243.492188 493.417969 242.125 C 493.417969 240.753906 494.527344 239.648438 495.890625 239.648438 C 497.257812 239.648438 498.371094 240.753906 498.371094 242.125 " fill-opacity="1" fill-rule="nonzero"/><path fill="#eb9e94" d="M 506.714844 242.125 C 506.714844 243.492188 505.605469 244.605469 504.242188 244.605469 C 502.871094 244.605469 501.761719 243.492188 501.761719 242.125 C 501.761719 240.761719 502.871094 239.648438 504.242188 239.648438 C 505.605469 239.648438 506.714844 240.761719 506.714844 242.125 " fill-opacity="1" fill-rule="nonzero"/><path fill="#ffbcb0" d="M 515.0625 242.125 C 515.0625 243.492188 513.957031 244.601562 512.589844 244.601562 C 511.222656 244.601562 510.117188 243.492188 510.117188 242.125 C 510.117188 240.757812 511.222656 239.648438 512.589844 239.648438 C 513.957031 239.648438 515.0625 240.757812 515.0625 242.125 " fill-opacity="1" fill-rule="nonzero"/><path fill="#ffbcb0" d="M 556.386719 132.980469 C 556.386719 135.824219 554.078125 138.128906 551.230469 138.128906 C 548.386719 138.128906 546.082031 135.824219 546.082031 132.980469 C 546.082031 130.128906 548.386719 127.824219 551.230469 127.824219 C 554.078125 127.824219 556.386719 130.128906 556.386719 132.980469 " fill-opacity="1" fill-rule="nonzero"/><path fill="#ffffff" d="M 552.003906 132.972656 L 553.9375 131.042969 C 554.152344 130.824219 554.152344 130.484375 553.9375 130.269531 C 553.726562 130.058594 553.378906 130.058594 553.167969 130.269531 L 551.238281 132.207031 L 549.296875 130.269531 C 549.089844 130.058594 548.742188 130.058594 548.53125 130.269531 C 548.320312 130.484375 548.320312 130.824219 548.53125 131.042969 L 550.464844 132.972656 L 548.53125 134.910156 C 548.320312 135.125 548.320312 135.46875 548.53125 135.679688 C 548.640625 135.789062 548.773438 135.839844 548.914062 135.839844 C 549.054688 135.839844 549.195312 135.789062 549.296875 135.679688 L 551.238281 133.742188 L 553.167969 135.679688 C 553.277344 135.789062 553.414062 135.839844 553.558594 135.839844 C 553.691406 135.839844 553.832031 135.789062 553.9375 135.679688 C 554.152344 135.46875 554.152344 135.125 553.9375 134.910156 L 552.003906 132.972656 " fill-opacity="1" fill-rule="nonzero"/><path fill="#ffffff" d="M 439.101562 390.128906 L 334.0625 390.128906 C 331.414062 390.128906 329.265625 387.984375 329.265625 385.335938 L 329.265625 263.414062 C 329.265625 260.765625 331.414062 258.617188 334.0625 258.617188 L 439.101562 258.617188 C 441.75 258.617188 443.894531 260.765625 443.894531 263.414062 L 443.894531 385.335938 C 443.894531 387.984375 441.75 390.128906 439.101562 390.128906 " fill-opacity="1" fill-rule="nonzero"/><path fill="#ffbcb0" d="M 439.089844 266.695312 C 439.089844 269.542969 436.785156 271.851562 433.9375 271.851562 C 431.085938 271.851562 428.78125 269.542969 428.78125 266.695312 C 428.78125 263.851562 431.085938 261.539062 433.9375 261.539062 C 436.785156 261.539062 439.089844 263.851562 439.089844 266.695312 " fill-opacity="1" fill-rule="nonzero"/><path fill="#ffffff" d="M 434.699219 266.699219 L 436.632812 264.761719 C 436.84375 264.550781 436.84375 264.207031 436.632812 263.996094 C 436.421875 263.78125 436.078125 263.78125 435.867188 263.996094 L 433.929688 265.929688 L 431.996094 263.996094 C 431.785156 263.78125 431.441406 263.78125 431.226562 263.996094 C 431.015625 264.207031 431.015625 264.550781 431.226562 264.761719 L 433.160156 266.699219 L 431.226562 268.636719 C 431.015625 268.847656 431.015625 269.191406 431.226562 269.40625 C 431.332031 269.511719 431.472656 269.5625 431.613281 269.5625 C 431.753906 269.5625 431.890625 269.511719 431.996094 269.40625 L 433.929688 267.46875 L 435.867188 269.40625 C 435.972656 269.511719 436.109375 269.5625 436.25 269.5625 C 436.390625 269.5625 436.527344 269.511719 436.632812 269.40625 C 436.84375 269.191406 436.84375 268.847656 436.632812 268.636719 L 434.699219 266.699219 " fill-opacity="1" fill-rule="nonzero"/><path fill="#ffbcb0" d="M 400.035156 374.335938 L 376.023438 374.335938 C 372.644531 374.335938 369.902344 371.589844 369.902344 368.207031 L 369.902344 366.210938 C 369.902344 362.824219 372.644531 360.085938 376.023438 360.085938 L 400.035156 360.085938 C 403.417969 360.085938 406.15625 362.824219 406.15625 366.210938 L 406.15625 368.207031 C 406.15625 371.589844 403.417969 374.335938 400.035156 374.335938 " fill-opacity="1" fill-rule="nonzero"/><path fill="#ffbcb0" d="M 382.160156 348.691406 C 382.160156 350.058594 381.050781 351.167969 379.683594 351.167969 C 378.3125 351.167969 377.207031 350.058594 377.207031 348.691406 C 377.207031 347.324219 378.3125 346.214844 379.683594 346.214844 C 381.050781 346.214844 382.160156 347.324219 382.160156 348.691406 " fill-opacity="1" fill-rule="nonzero"/><path fill="#eb9e94" d="M 390.503906 348.691406 C 390.503906 350.058594 389.398438 351.167969 388.03125 351.167969 C 386.664062 351.167969 385.554688 350.058594 385.554688 348.691406 C 385.554688 347.324219 386.664062 346.214844 388.03125 346.214844 C 389.398438 346.214844 390.503906 347.324219 390.503906 348.691406 " fill-opacity="1" fill-rule="nonzero"/><path fill="#ffbcb0" d="M 398.855469 348.691406 C 398.855469 350.058594 397.746094 351.167969 396.375 351.167969 C 395.011719 351.167969 393.902344 350.058594 393.902344 348.691406 C 393.902344 347.324219 395.011719 346.214844 396.375 346.214844 C 397.746094 346.214844 398.855469 347.324219 398.855469 348.691406 " fill-opacity="1" fill-rule="nonzero"/><path fill="#ffbcb0" d="M 424.8125 332.554688 L 415.347656 276.601562 C 415.207031 275.78125 414.429688 275.242188 413.613281 275.40625 C 411.925781 275.746094 408.828125 276.296875 404.570312 276.71875 C 399.621094 277.214844 390.105469 277.539062 388.027344 277.566406 C 385.953125 277.539062 376.441406 277.214844 371.488281 276.71875 C 367.230469 276.296875 364.136719 275.746094 362.445312 275.40625 C 361.632812 275.242188 360.851562 275.78125 360.710938 276.601562 L 351.246094 332.554688 C 351.113281 333.351562 351.648438 334.109375 352.441406 334.242188 C 355.335938 334.738281 372.371094 337.628906 388.027344 337.628906 C 402.394531 337.628906 420.722656 334.738281 423.617188 334.242188 C 424.410156 334.109375 424.945312 333.351562 424.8125 332.554688 " fill-opacity="1" fill-rule="nonzero"/><path fill="#eb9e94" d="M 415.953125 280.347656 L 415.320312 276.597656 C 415.179688 275.78125 414.402344 275.242188 413.589844 275.402344 C 411.898438 275.746094 408.800781 276.292969 404.542969 276.722656 C 399.59375 277.21875 390.078125 277.539062 388.003906 277.566406 C 385.929688 277.539062 376.414062 277.21875 371.460938 276.722656 C 367.203125 276.292969 364.105469 275.746094 362.417969 275.402344 C 361.605469 275.242188 360.820312 275.78125 360.683594 276.597656 L 360.105469 280.019531 C 367.121094 281.035156 378.578125 282.410156 389.378906 282.410156 C 398.25 282.410156 408.628906 281.308594 415.953125 280.347656 " fill-opacity="1" fill-rule="nonzero"/><path fill="#ffffff" d="M 390.039062 279.773438 C 390.039062 280.882812 389.140625 281.78125 388.03125 281.78125 C 386.917969 281.78125 386.019531 280.882812 386.019531 279.773438 C 386.019531 278.660156 386.917969 277.757812 388.03125 277.757812 C 389.140625 277.757812 390.039062 278.660156 390.039062 279.773438 " fill-opacity="1" fill-rule="nonzero"/><path fill="#ffffff" d="M 358.898438 298.539062 C 358.554688 298.539062 358.207031 298.519531 357.863281 298.484375 C 357.488281 298.453125 357.214844 298.121094 357.25 297.746094 C 357.289062 297.375 357.621094 297.09375 357.992188 297.136719 C 360.964844 297.421875 363.914062 296.292969 366.511719 293.871094 C 370.625 290.03125 373.398438 283.390625 373.257812 277.714844 C 373.246094 277.339844 373.542969 277.03125 373.914062 277.019531 C 374.277344 277.015625 374.601562 277.308594 374.609375 277.683594 C 374.761719 283.714844 371.816406 290.78125 367.4375 294.863281 C 364.847656 297.277344 361.910156 298.539062 358.898438 298.539062 " fill-opacity="1" fill-rule="nonzero"/><path fill="#ffffff" d="M 417.515625 298.535156 C 414.503906 298.535156 411.570312 297.277344 408.976562 294.863281 C 404.601562 290.777344 401.652344 283.714844 401.804688 277.679688 C 401.816406 277.304688 402.105469 277.015625 402.5 277.019531 C 402.875 277.027344 403.171875 277.339844 403.160156 277.714844 C 403.019531 283.390625 405.785156 290.03125 409.902344 293.867188 C 412.5 296.292969 415.445312 297.417969 418.425781 297.136719 C 418.792969 297.09375 419.125 297.375 419.164062 297.746094 C 419.199219 298.117188 418.925781 298.449219 418.554688 298.484375 C 418.207031 298.519531 417.859375 298.535156 417.515625 298.535156 " fill-opacity="1" fill-rule="nonzero"/><path fill="#ffbcb0" d="M 549.316406 154.023438 L 530.796875 142.203125 C 530.664062 142.117188 530.523438 142.058594 530.367188 142.019531 C 529.058594 141.691406 522.402344 140.003906 518.371094 138.746094 C 517.542969 138.484375 515.742188 136.988281 514.21875 135.71875 C 514.097656 135.617188 511.644531 138.449219 504.453125 138.449219 C 496.84375 138.449219 494.386719 135.617188 494.257812 135.71875 C 492.742188 136.988281 490.9375 138.484375 490.109375 138.746094 C 486.070312 140.003906 479.417969 141.691406 478.109375 142.019531 C 477.957031 142.058594 477.816406 142.117188 477.679688 142.203125 L 459.164062 154.023438 C 458.5 154.449219 458.289062 155.324219 458.679688 156.007812 L 466.976562 170.382812 C 467.257812 170.863281 467.789062 171.144531 468.339844 171.117188 L 473.199219 170.832031 C 474.042969 170.785156 474.75 171.449219 474.757812 172.296875 L 475.101562 222.863281 C 475.109375 223.671875 475.765625 224.324219 476.574219 224.328125 L 497.601562 224.375 C 497.699219 224.394531 497.796875 224.402344 497.898438 224.402344 L 504.238281 224.390625 L 510.582031 224.402344 C 510.683594 224.402344 510.78125 224.394531 510.875 224.375 L 531.898438 224.328125 C 532.714844 224.324219 533.367188 223.671875 533.375 222.863281 L 533.71875 172.296875 C 533.722656 171.449219 534.4375 170.785156 535.28125 170.832031 L 540.136719 171.117188 C 540.695312 171.144531 541.21875 170.863281 541.496094 170.382812 L 549.800781 156.007812 C 550.191406 155.324219 549.980469 154.449219 549.316406 154.023438 " fill-opacity="1" fill-rule="nonzero"/><path fill="#ffffff" d="M 510.949219 154.917969 C 511.394531 155.308594 512.066406 155.269531 512.460938 154.832031 C 514.332031 152.757812 519.035156 146.640625 517.894531 138.523438 C 516.964844 138.003906 515.496094 136.78125 514.21875 135.71875 C 514.214844 135.714844 514.207031 135.71875 514.191406 135.722656 C 512.914062 145.59375 504.90625 149.417969 504.480469 149.613281 C 504.03125 149.417969 495.605469 145.59375 494.292969 135.722656 C 494.273438 135.71875 494.265625 135.714844 494.257812 135.71875 C 492.984375 136.78125 491.515625 138.003906 490.582031 138.523438 C 489.441406 146.640625 494.144531 152.757812 496.015625 154.832031 C 496.414062 155.269531 497.085938 155.308594 497.53125 154.917969 L 504.480469 149.640625 L 510.949219 154.917969 " fill-opacity="1" fill-rule="nonzero"/><path fill="#ffffff" d="M 505.660156 154.632812 C 505.660156 155.316406 505.109375 155.867188 504.425781 155.867188 C 503.746094 155.867188 503.195312 155.316406 503.195312 154.632812 C 503.195312 153.953125 503.746094 153.398438 504.425781 153.398438 C 505.109375 153.398438 505.660156 153.953125 505.660156 154.632812 " fill-opacity="1" fill-rule="nonzero"/><path fill="#ffffff" d="M 505.660156 161.726562 C 505.660156 162.40625 505.109375 162.960938 504.425781 162.960938 C 503.746094 162.960938 503.195312 162.40625 503.195312 161.726562 C 503.195312 161.046875 503.746094 160.492188 504.425781 160.492188 C 505.109375 160.492188 505.660156 161.046875 505.660156 161.726562 " fill-opacity="1" fill-rule="nonzero"/><path fill="#ffffff" d="M 505.660156 168.820312 C 505.660156 169.496094 505.109375 170.050781 504.425781 170.050781 C 503.746094 170.050781 503.195312 169.496094 503.195312 168.820312 C 503.195312 168.136719 503.746094 167.585938 504.425781 167.585938 C 505.109375 167.585938 505.660156 168.136719 505.660156 168.820312 " fill-opacity="1" fill-rule="nonzero"/><path fill="#eb9e94" d="M 526.648438 165.015625 L 516.726562 165.015625 C 516.503906 165.015625 516.324219 164.839844 516.324219 164.613281 L 516.324219 162.796875 C 516.324219 162.574219 516.503906 162.394531 516.726562 162.394531 L 526.648438 162.394531 C 526.867188 162.394531 527.050781 162.574219 527.050781 162.796875 L 527.050781 164.613281 C 527.050781 164.839844 526.867188 165.015625 526.648438 165.015625 " fill-opacity="1" fill-rule="nonzero"/><path fill="#282444" d="M 288.320312 566.679688 L 282.519531 566.679688 C 281.277344 566.679688 280.261719 565.660156 280.261719 564.421875 L 267.679688 508.601562 C 267.679688 507.359375 268.699219 506.339844 269.941406 506.339844 L 283.277344 506.339844 C 284.523438 506.339844 285.542969 507.359375 285.542969 508.601562 L 290.578125 564.421875 C 290.578125 565.660156 289.5625 566.679688 288.320312 566.679688 " fill-opacity="1" fill-rule="nonzero"/><path fill="#282444" d="M 81.035156 566.679688 L 86.832031 566.679688 C 88.078125 566.679688 89.09375 565.660156 89.09375 564.421875 L 101.671875 508.601562 C 101.671875 507.359375 100.65625 506.339844 99.414062 506.339844 L 86.074219 506.339844 C 84.832031 506.339844 83.8125 507.359375 83.8125 508.601562 L 78.773438 564.421875 C 78.773438 565.660156 79.792969 566.679688 81.035156 566.679688 " fill-opacity="1" fill-rule="nonzero"/><path fill="#ffbcb0" d="M 325.214844 403.863281 C 319.519531 379.960938 292.417969 384.769531 294.226562 379.328125 C 306.625 342.054688 313.628906 315.800781 316.507812 287.421875 C 316.902344 283.496094 316.421875 260.042969 301.652344 259.320312 C 295.503906 259.023438 296.558594 260.984375 289.0625 258.9375 C 253.632812 249.242188 241.582031 256.890625 232.628906 255.511719 C 224.800781 254.308594 203.773438 249.96875 184.847656 255.015625 C 184.101562 255.210938 183.320312 255.210938 182.574219 255.015625 C 163.648438 249.96875 142.621094 254.308594 134.792969 255.511719 C 125.839844 256.890625 113.785156 249.242188 78.355469 258.9375 C 70.863281 260.984375 71.917969 259.023438 65.765625 259.320312 C 50.996094 260.042969 50.515625 283.496094 50.914062 287.421875 C 53.789062 315.800781 60.796875 342.054688 73.191406 379.328125 C 75 384.769531 47.898438 379.960938 42.207031 403.863281 C 40.070312 412.828125 41.9375 422.191406 45.675781 428.132812 C 50.445312 435.710938 57.371094 438.960938 61.675781 439.996094 C 62.3125 440.148438 64.425781 440.53125 64.410156 442.394531 C 64.332031 451.058594 61.296875 486.757812 68.789062 526.367188 C 69.191406 528.484375 70 534.554688 74.992188 534.882812 C 80.195312 535.214844 135.261719 536.246094 183.710938 535.863281 C 232.15625 536.246094 288.578125 535.214844 293.785156 534.882812 C 298.777344 534.554688 299.605469 528.488281 299.988281 526.367188 C 306.964844 487.519531 301.488281 451.933594 303.011719 442.394531 C 303.308594 440.554688 305.105469 440.148438 305.742188 439.996094 C 310.046875 438.960938 316.976562 435.710938 321.742188 428.132812 C 325.480469 422.191406 327.351562 412.828125 325.214844 403.863281 " fill-opacity="1" fill-rule="nonzero"/><path stroke-linecap="butt" transform="matrix(0.0340788, 0, 0, -0.0340877, -149.051344, 649.490462)" fill="none" stroke-linejoin="miter" d="M 6613.941571 7899.254335 C 6684.320767 7904.64025 7328.737444 7943.945976 7780.35639 7428.044 C 8196.212616 6953.166659 8121.477704 6381.342833 8109.32755 6299.064375 " stroke="#1d1d1b" stroke-width="10" stroke-opacity="1" stroke-miterlimit="10"/><path fill="#eb9e94" d="M 316.824219 287.421875 C 317.226562 283.496094 316.746094 260.042969 301.976562 259.320312 C 295.824219 259.023438 296.878906 260.984375 289.386719 258.9375 C 253.957031 249.242188 241.902344 256.890625 232.949219 255.511719 C 225.121094 254.308594 204.09375 249.96875 185.167969 255.015625 C 184.421875 255.210938 183.640625 255.210938 182.894531 255.015625 C 163.96875 249.96875 142.941406 254.308594 135.113281 255.511719 C 126.160156 256.890625 114.105469 249.242188 78.679688 258.9375 C 71.183594 260.984375 72.238281 259.023438 66.085938 259.320312 C 51.316406 260.042969 50.839844 283.496094 51.234375 287.421875 C 54.113281 315.800781 61.117188 342.054688 73.515625 379.328125 C 74.898438 383.5 59.28125 381.644531 49.355469 391.339844 C 54.558594 388.800781 62.066406 386.695312 73.296875 387.617188 C 86.304688 388.683594 96.023438 397.976562 97.25 399.339844 C 111.339844 415.019531 109.273438 433.308594 103.679688 441.847656 C 96.003906 453.554688 95.117188 470.007812 99.441406 486.449219 C 100.808594 491.644531 106.414062 494.671875 110.175781 495.375 C 117.175781 496.695312 130.433594 497.214844 147.074219 497.570312 C 158.078125 497.804688 169.152344 498.03125 177.453125 498.203125 C 177.515625 498.378906 177.554688 498.476562 177.554688 498.476562 C 177.554688 498.476562 180.117188 498.425781 184.367188 498.34375 C 188.613281 498.425781 191.179688 498.476562 191.179688 498.476562 C 191.179688 498.476562 191.214844 498.378906 191.277344 498.203125 C 199.578125 498.03125 210.648438 497.804688 221.65625 497.570312 C 238.296875 497.214844 251.554688 496.695312 258.554688 495.375 C 262.320312 494.671875 267.921875 491.644531 269.289062 486.449219 C 273.613281 470.007812 272.722656 453.554688 265.054688 441.847656 C 259.457031 433.308594 257.390625 415.019531 271.480469 399.339844 C 272.707031 397.976562 282.425781 388.683594 295.433594 387.617188 C 305.753906 386.769531 312.929688 388.480469 318.0625 390.734375 C 308.121094 381.71875 293.191406 383.410156 294.550781 379.328125 C 306.941406 342.054688 313.949219 315.800781 316.824219 287.421875 " fill-opacity="1" fill-rule="nonzero"/><path stroke-linecap="butt" transform="matrix(0.0340788, 0, 0, -0.0340877, -149.051344, 649.490462)" fill="none" stroke-linejoin="miter" d="M 6765.589252 11396.776374 C 7274.290998 11345.094501 7556.954023 10548.43734 7405.650214 9885.74051 C 7291.943109 9387.71519 7254.804901 8475.661918 7613.692951 7716.591574 " stroke="#1d1d1b" stroke-width="10" stroke-opacity="1" stroke-miterlimit="10"/><path fill="#ec7d40" d="M 116.617188 320.953125 C 151.636719 363.390625 148.246094 374.511719 165.402344 359.035156 C 180.496094 345.421875 186.277344 349.042969 195.09375 339.269531 C 198.226562 335.792969 202.875 328.867188 205.902344 327.132812 C 210.695312 324.390625 222.882812 324.367188 225.65625 325.441406 C 227.390625 326.113281 226.515625 327.34375 226.679688 327.339844 C 228.492188 327.28125 230.613281 330.632812 227.738281 332.722656 C 226.386719 333.703125 214.304688 342.542969 209.429688 344.53125 C 206.953125 345.542969 202.746094 346.035156 201.128906 347.648438 C 186.238281 362.539062 173.425781 385.222656 157.277344 383.960938 C 148.089844 383.246094 109.664062 368.210938 95.140625 327.257812 C 90.460938 314.0625 104.597656 306.386719 116.617188 320.953125 " fill-opacity="1" fill-rule="nonzero"/><path fill="#282444" d="M 128.0625 312.539062 C 127.742188 306.082031 123.050781 303.183594 124.625 297.058594 C 126.066406 291.464844 128.457031 289.039062 127.785156 284.765625 C 127.195312 281.015625 123.335938 279.511719 121.988281 272.996094 C 120.960938 268.027344 123.519531 262.71875 120.777344 257.730469 C 112.890625 243.378906 102.585938 237.691406 89.609375 238.71875 C 83.265625 239.21875 82.976562 241.878906 80.664062 242.628906 C 78.863281 243.210938 79.246094 242.648438 76.9375 243.207031 C 73.996094 243.917969 68.992188 250.320312 68.976562 264.144531 C 68.972656 270.414062 64.753906 268.304688 62.355469 273.289062 C 59.808594 278.585938 65.144531 284.632812 58.4375 286.007812 C 50.132812 287.703125 48.140625 294.558594 48.507812 297.988281 C 49.601562 308.273438 46.453125 308.46875 43.816406 311.960938 C 37.847656 319.851562 42.34375 330.5 44.3125 334.050781 C 57.351562 357.542969 101.929688 364.960938 123.65625 325.808594 C 124.800781 323.746094 128.398438 319.324219 128.0625 312.539062 " fill-opacity="1" fill-rule="nonzero"/><path fill="#ffffff" d="M 178.59375 376.046875 C 177.640625 376.40625 176.523438 376.144531 175.839844 375.3125 C 174.976562 374.269531 175.125 372.730469 176.167969 371.867188 L 226.324219 330.835938 L 226.058594 263.664062 C 225.84375 262.328125 226.75 261.070312 228.082031 260.851562 C 229.417969 260.636719 230.75 261.3125 230.890625 262.875 L 231.378906 331.433594 C 231.066406 332.292969 230.738281 333.164062 230.070312 333.714844 L 179.28125 375.644531 C 179.070312 375.816406 178.835938 375.953125 178.59375 376.046875 " fill-opacity="1" fill-rule="nonzero"/><path fill="#ec7d40" d="M 363.464844 333.730469 C 362.386719 334.78125 363.894531 336.957031 364.503906 337.832031 C 368.050781 342.96875 359.050781 357.828125 345.066406 364.234375 C 331.273438 370.550781 293.859375 375.082031 254.761719 360.238281 C 247.707031 357.558594 243.148438 357.628906 236.34375 360.03125 C 220.191406 365.738281 177.328125 383.070312 154.679688 409.667969 C 145.539062 420.40625 143.722656 439.867188 151.554688 448.117188 C 156.992188 453.839844 167.285156 454.679688 180.539062 451.136719 C 196.875 446.773438 217.730469 425.777344 248.261719 390.011719 C 249.308594 388.785156 251.054688 388.445312 252.5 389.15625 C 266.042969 395.84375 287 397.078125 302.4375 392.109375 C 321.390625 386.015625 336.40625 378.125 344.671875 382.789062 C 346.582031 383.867188 348.515625 385.195312 353.488281 385.910156 C 361.804688 387.113281 360.648438 379.105469 361.515625 374.980469 C 364.082031 362.703125 369.273438 363.210938 370.753906 354.089844 C 373.050781 339.964844 365.925781 331.308594 363.464844 333.730469 " fill-opacity="1" fill-rule="nonzero"/><path fill="#f79556" d="M 83.566406 283.917969 C 86.75 292.046875 91.941406 301.257812 89.695312 310.667969 C 88.15625 317.128906 101.234375 320.949219 105.472656 320.019531 C 113.417969 318.277344 108.355469 299.34375 100.464844 290.535156 C 95.507812 285 81.957031 279.796875 83.566406 283.917969 " fill-opacity="1" fill-rule="nonzero"/><path fill="#ec7d40" d="M 88.332031 285.027344 C 92.039062 292.683594 98.015625 301.679688 107.839844 303.882812 C 107.1875 300.761719 106.707031 298.949219 105.878906 295.992188 C 105.84375 296 92.1875 290.09375 88.332031 285.027344 " fill-opacity="1" fill-rule="nonzero"/><path fill="#f79556" d="M 114.113281 261.746094 C 114.113281 261.746094 111.304688 263.023438 104.832031 264.519531 C 98.210938 266.050781 92.769531 266.199219 92.769531 266.199219 C 91.613281 266.441406 90.929688 265.457031 90.941406 264.277344 C 90.953125 263.339844 90.898438 262.125 90.703125 260.625 C 88.132812 267.496094 83.660156 274 79.324219 273.828125 C 78.664062 274.21875 71.835938 271.738281 75.371094 279.773438 C 77.652344 284.960938 82.632812 287.746094 83.945312 286.742188 C 85.441406 285.601562 85.007812 284.597656 85.722656 285.273438 C 90.5625 289.835938 96.773438 298.269531 105.558594 298.15625 C 106.769531 298.140625 108.109375 297.699219 108.339844 297.625 C 112.535156 296.273438 114.0625 291.792969 114.964844 289.542969 C 118.832031 279.929688 116.441406 268.828125 114.652344 262.167969 C 114.597656 261.972656 114.546875 261.785156 114.496094 261.597656 C 114.378906 261.652344 114.25 261.699219 114.113281 261.746094 " fill-opacity="1" fill-rule="nonzero"/><path fill="#e1d7f7" d="M 674.5625 437.703125 L 476.269531 437.703125 C 469.640625 437.703125 464.269531 432.328125 464.269531 425.695312 L 464.269531 311.640625 C 464.269531 305.007812 469.640625 299.632812 476.269531 299.632812 L 674.5625 299.632812 C 681.191406 299.632812 686.5625 305.007812 686.5625 311.640625 L 686.5625 425.695312 C 686.5625 432.328125 681.191406 437.703125 674.5625 437.703125 " fill-opacity="1" fill-rule="nonzero"/><path fill="#282444" d="M 665.859375 431.304688 L 473.140625 431.304688 C 465.070312 431.304688 458.53125 424.761719 458.53125 416.695312 L 458.53125 308.019531 C 458.53125 299.949219 465.070312 293.410156 473.140625 293.410156 L 665.859375 293.410156 C 673.925781 293.410156 680.464844 299.949219 680.464844 308.019531 L 680.464844 416.695312 C 680.464844 424.761719 673.925781 431.304688 665.859375 431.304688 " fill-opacity="1" fill-rule="nonzero"/><path fill="#f39200" d="M 500.675781 370.714844 L 476.992188 370.714844 C 474.015625 370.714844 471.605469 368.300781 471.605469 365.324219 L 471.605469 348.425781 C 471.605469 345.449219 474.015625 343.035156 476.992188 343.035156 L 500.675781 343.035156 C 503.652344 343.035156 506.0625 345.449219 506.0625 348.425781 L 506.0625 365.324219 C 506.0625 368.300781 503.652344 370.714844 500.675781 370.714844 " fill-opacity="1" fill-rule="nonzero"/><path fill="#ffffff" d="M 593.984375 318.457031 L 471.605469 318.457031 L 471.605469 307.621094 L 593.984375 307.621094 L 593.984375 318.457031 " fill-opacity="1" fill-rule="nonzero"/><path fill="#ffffff" d="M 593.984375 401.179688 L 471.605469 401.179688 L 471.605469 390.34375 L 593.984375 390.34375 L 593.984375 401.179688 " fill-opacity="1" fill-rule="nonzero"/><path fill="#eb9e94" d="M 553.597656 413.6875 L 471.597656 413.6875 L 471.597656 408.726562 L 553.597656 408.726562 L 553.597656 413.6875 " fill-opacity="1" fill-rule="nonzero"/><path fill="#e30613" d="M 662.644531 403.589844 C 662.644531 410.902344 656.714844 416.835938 649.402344 416.835938 C 642.085938 416.835938 636.15625 410.902344 636.15625 403.589844 C 636.15625 396.273438 642.085938 390.34375 649.402344 390.34375 C 656.714844 390.34375 662.644531 396.273438 662.644531 403.589844 " fill-opacity="1" fill-rule="nonzero"/><path fill="#ffbcb0" d="M 397.792969 507.8125 C 396.117188 507.472656 394.714844 506.28125 394.441406 500.382812 C 393.890625 488.519531 408.214844 484.210938 412.917969 487.578125 C 413.921875 488.289062 412.085938 488.042969 412.03125 489.304688 C 411.742188 496.023438 402.105469 508.679688 397.792969 507.8125 " fill-opacity="1" fill-rule="nonzero"/><path fill="#ffbcb0" d="M 379.65625 482.65625 C 382.664062 482.027344 382.160156 475.011719 379.527344 470.304688 C 379.527344 470.304688 374.753906 460.980469 362.386719 463.761719 C 361.582031 463.941406 361.1875 463.722656 361.296875 463.925781 C 361.859375 464.949219 361.128906 466.039062 362.726562 469.210938 C 363.855469 471.441406 370.886719 484.488281 379.65625 482.65625 " fill-opacity="1" fill-rule="nonzero"/><path fill="#ffbcb0" d="M 389.609375 493.109375 C 391.402344 493.347656 393.316406 488.515625 396.539062 480.367188 C 396.539062 480.367188 398.023438 476.613281 399.171875 470.160156 C 399.652344 467.464844 399.269531 466.742188 399.269531 466.742188 C 398.019531 465.976562 392.996094 470.996094 389.972656 476.609375 C 388.601562 479.164062 386.4375 483.3125 387.316406 488.328125 C 387.492188 489.320312 388.121094 492.910156 389.609375 493.109375 " fill-opacity="1" fill-rule="nonzero"/><path fill="#ffbcb0" d="M 386.070312 496.296875 C 385.183594 497.453125 383.128906 496.1875 374.246094 494.25 C 369.390625 493.195312 365.722656 492.640625 362.320312 489.613281 C 360.675781 488.148438 360.578125 487.457031 360.679688 487.105469 C 361.023438 485.941406 367.371094 483.832031 372.324219 484.339844 C 374.460938 484.554688 379.519531 485.074219 383.164062 489.082031 C 384.984375 491.082031 387.214844 494.796875 386.070312 496.296875 " fill-opacity="1" fill-rule="nonzero"/><path fill="#ffbcb0" d="M 364.523438 503.601562 C 364.046875 502.644531 373.648438 493.523438 388.613281 502.191406 C 392.179688 504.257812 394.6875 509.609375 393.382812 509.734375 C 388.195312 510.238281 376.121094 511.925781 366.136719 503.863281 C 364.976562 502.925781 364.777344 504.113281 364.523438 503.601562 " fill-opacity="1" fill-rule="nonzero"/><path fill="#ffbcb0" d="M 393.085938 509.058594 C 392.976562 509.183594 392.789062 509.207031 392.640625 509.117188 C 388.4375 506.457031 381.640625 503.726562 375.917969 503.644531 C 375.726562 503.640625 375.570312 503.480469 375.574219 503.285156 C 375.578125 503.089844 375.734375 502.9375 375.929688 502.941406 C 381.785156 503.027344 388.730469 505.8125 393.015625 508.523438 C 393.179688 508.628906 393.230469 508.847656 393.125 509.007812 C 393.117188 509.027344 393.101562 509.046875 393.085938 509.058594 " fill-opacity="1" fill-rule="nonzero"/><path fill="#ffbcb0" d="M 395.996094 508.722656 C 395.914062 508.8125 395.789062 508.855469 395.660156 508.828125 C 395.46875 508.785156 395.355469 508.597656 395.394531 508.410156 C 396.886719 501.761719 401.699219 494.519531 405.808594 490.285156 C 405.941406 490.144531 406.164062 490.140625 406.300781 490.277344 C 406.441406 490.410156 406.445312 490.632812 406.3125 490.773438 C 402.273438 494.933594 397.542969 502.046875 396.078125 508.5625 C 396.066406 508.621094 396.035156 508.675781 395.996094 508.722656 " fill-opacity="1" fill-rule="nonzero"/><path fill="#ffbcb0" d="M 387.554688 496.25 C 387.429688 496.382812 387.226562 496.402344 387.078125 496.289062 C 383.121094 493.285156 376.574219 489.992188 370.882812 489.417969 C 370.6875 489.402344 370.546875 489.226562 370.570312 489.035156 C 370.585938 488.839844 370.757812 488.703125 370.949219 488.722656 C 376.78125 489.304688 383.46875 492.664062 387.503906 495.730469 C 387.660156 495.851562 387.691406 496.070312 387.574219 496.226562 C 387.566406 496.230469 387.558594 496.242188 387.554688 496.25 " fill-opacity="1" fill-rule="nonzero"/><path fill="#ffbcb0" d="M 389.640625 494.730469 C 389.585938 494.792969 389.507812 494.835938 389.421875 494.84375 C 389.226562 494.867188 389.054688 494.726562 389.035156 494.53125 C 388.429688 488.703125 390.363281 481.476562 392.550781 476.898438 C 392.632812 476.722656 392.84375 476.648438 393.015625 476.730469 C 393.191406 476.816406 393.265625 477.023438 393.183594 477.195312 C 391.039062 481.6875 389.140625 488.765625 389.730469 494.460938 C 389.746094 494.5625 389.707031 494.660156 389.640625 494.730469 " fill-opacity="1" fill-rule="nonzero"/><path fill="#ffbcb0" d="M 400.355469 536.136719 C 400.296875 536.199219 400.21875 536.242188 400.132812 536.25 C 399.941406 536.269531 399.765625 536.132812 399.746094 535.9375 C 397.753906 516.414062 392.851562 494.984375 370.710938 470.636719 C 370.582031 470.492188 370.589844 470.269531 370.734375 470.136719 C 370.878906 470.007812 371.101562 470.019531 371.230469 470.164062 C 381.507812 481.46875 388.796875 492.84375 393.511719 504.941406 C 398.019531 516.492188 399.546875 527.058594 400.445312 535.867188 C 400.457031 535.972656 400.421875 536.066406 400.355469 536.136719 " fill-opacity="1" fill-rule="nonzero"/><path fill="#eb9e94" d="M 471.335938 472.84375 L 399.796875 472.84375 C 398.757812 472.84375 397.910156 473.6875 397.910156 474.726562 L 397.910156 552.542969 C 397.910156 553.582031 398.75 554.421875 399.785156 554.429688 L 404.710938 554.457031 C 405.417969 554.460938 406.0625 554.859375 406.382812 555.488281 L 409.8125 562.269531 L 409.855469 562.351562 L 471.335938 562.351562 C 471.601562 562.351562 471.820312 562.136719 471.820312 561.871094 L 471.820312 473.324219 C 471.820312 473.058594 471.601562 472.84375 471.335938 472.84375 " fill-opacity="1" fill-rule="nonzero"/><path fill="#ffbcb0" d="M 409.855469 472.84375 L 405.148438 472.84375 L 405.148438 554.039062 C 405.148438 554.300781 405.28125 554.550781 405.511719 554.671875 C 405.855469 554.847656 406.144531 555.136719 406.324219 555.492188 L 409.855469 562.351562 L 409.855469 472.84375 " fill-opacity="1" fill-rule="nonzero"/><path fill="#ffbcb0" d="M 441.792969 473.789062 C 441.199219 473.789062 440.714844 473.304688 440.714844 472.707031 L 440.714844 468.148438 C 440.714844 462.25 435.921875 457.453125 430.023438 457.453125 C 424.132812 457.453125 419.332031 462.25 419.332031 468.148438 L 419.332031 472.707031 C 419.332031 473.304688 418.851562 473.789062 418.253906 473.789062 C 417.65625 473.789062 417.175781 473.304688 417.175781 472.707031 L 417.175781 468.148438 C 417.175781 461.0625 422.941406 455.296875 430.023438 455.296875 C 437.109375 455.296875 442.875 461.0625 442.875 468.148438 L 442.875 472.707031 C 442.875 473.304688 442.394531 473.789062 441.792969 473.789062 " fill-opacity="1" fill-rule="nonzero"/><path fill="#ffbcb0" d="M 452.519531 483.117188 C 451.925781 483.117188 451.445312 482.636719 451.445312 482.042969 L 451.445312 468.148438 C 451.445312 462.25 446.644531 457.453125 440.746094 457.453125 C 434.855469 457.453125 430.058594 462.25 430.058594 468.148438 L 430.058594 482.042969 C 430.058594 482.636719 429.578125 483.117188 428.980469 483.117188 C 428.382812 483.117188 427.898438 482.636719 427.898438 482.042969 L 427.898438 468.148438 C 427.898438 461.0625 433.667969 455.296875 440.746094 455.296875 C 447.835938 455.296875 453.597656 461.0625 453.597656 468.148438 L 453.597656 482.042969 C 453.597656 482.636719 453.113281 483.117188 452.519531 483.117188 " fill-opacity="1" fill-rule="nonzero"/><path fill="#282444" d="M 513.886719 517.195312 L 552.355469 517.195312 C 552.917969 517.195312 553.371094 517.648438 553.371094 518.207031 L 553.371094 560.050781 C 553.371094 560.605469 552.921875 561.058594 552.367188 561.0625 L 549.714844 561.082031 C 549.335938 561.082031 548.988281 561.296875 548.8125 561.636719 L 546.972656 565.277344 L 546.949219 565.324219 L 513.886719 565.324219 C 513.746094 565.324219 513.628906 565.207031 513.628906 565.066406 L 513.628906 517.453125 C 513.628906 517.3125 513.746094 517.195312 513.886719 517.195312 " fill-opacity="1" fill-rule="nonzero"/><path fill="#eb9e94" d="M 529.773438 517.699219 C 530.09375 517.699219 530.351562 517.441406 530.351562 517.121094 L 530.351562 514.667969 C 530.351562 511.496094 532.933594 508.917969 536.101562 508.917969 C 539.269531 508.917969 541.851562 511.496094 541.851562 514.667969 L 541.851562 517.121094 C 541.851562 517.441406 542.109375 517.699219 542.433594 517.699219 C 542.75 517.699219 543.011719 517.441406 543.011719 517.121094 L 543.011719 514.667969 C 543.011719 510.859375 539.910156 507.757812 536.101562 507.757812 C 532.292969 507.757812 529.195312 510.859375 529.195312 514.667969 L 529.195312 517.121094 C 529.195312 517.441406 529.453125 517.699219 529.773438 517.699219 " fill-opacity="1" fill-rule="nonzero"/><path fill="#eb9e94" d="M 523.996094 522.71875 C 524.320312 522.71875 524.582031 522.460938 524.582031 522.140625 L 524.582031 514.671875 C 524.582031 511.496094 527.160156 508.917969 530.328125 508.917969 C 533.5 508.917969 536.074219 511.496094 536.074219 514.671875 L 536.074219 522.140625 C 536.074219 522.460938 536.335938 522.71875 536.65625 522.71875 C 536.976562 522.71875 537.238281 522.460938 537.238281 522.140625 L 537.238281 514.671875 C 537.238281 510.859375 534.136719 507.757812 530.328125 507.757812 C 526.519531 507.757812 523.421875 510.859375 523.421875 514.671875 L 523.421875 522.140625 C 523.421875 522.460938 523.675781 522.71875 523.996094 522.71875 " fill-opacity="1" fill-rule="nonzero"/><path fill="#e30613" d="M 425.554688 522.90625 L 387.601562 522.90625 C 387.050781 522.90625 386.605469 523.351562 386.605469 523.90625 L 386.605469 565.183594 C 386.605469 565.730469 387.046875 566.175781 387.597656 566.179688 L 390.210938 566.195312 C 390.582031 566.195312 390.929688 566.410156 391.09375 566.746094 L 392.914062 570.339844 L 392.9375 570.382812 L 425.554688 570.382812 C 425.691406 570.382812 425.808594 570.269531 425.808594 570.128906 L 425.808594 523.160156 C 425.808594 523.019531 425.691406 522.90625 425.554688 522.90625 " fill-opacity="1" fill-rule="nonzero"/><path fill="#9b0013" d="M 392.941406 522.90625 L 390.445312 522.90625 L 390.445312 565.976562 C 390.445312 566.109375 390.515625 566.246094 390.636719 566.308594 C 390.820312 566.40625 390.976562 566.554688 391.070312 566.746094 L 392.941406 570.382812 L 392.941406 522.90625 " fill-opacity="1" fill-rule="nonzero"/><path fill="#282444" d="M 409.886719 523.40625 C 409.570312 523.40625 409.3125 523.148438 409.3125 522.832031 L 409.3125 520.414062 C 409.3125 517.285156 406.773438 514.742188 403.644531 514.742188 C 400.515625 514.742188 397.972656 517.285156 397.972656 520.414062 L 397.972656 522.832031 C 397.972656 523.148438 397.71875 523.40625 397.402344 523.40625 C 397.082031 523.40625 396.828125 523.148438 396.828125 522.832031 L 396.828125 520.414062 C 396.828125 516.652344 399.882812 513.597656 403.644531 513.597656 C 407.402344 513.597656 410.460938 516.652344 410.460938 520.414062 L 410.460938 522.832031 C 410.460938 523.148438 410.207031 523.40625 409.886719 523.40625 " fill-opacity="1" fill-rule="nonzero"/><path fill="#282444" d="M 415.574219 528.355469 C 415.253906 528.355469 415 528.097656 415 527.785156 L 415 520.414062 C 415 517.285156 412.457031 514.742188 409.324219 514.742188 C 406.203125 514.742188 403.65625 517.285156 403.65625 520.414062 L 403.65625 527.785156 C 403.65625 528.097656 403.398438 528.355469 403.085938 528.355469 C 402.769531 528.355469 402.515625 528.097656 402.515625 527.785156 L 402.515625 520.414062 C 402.515625 516.65625 405.570312 513.597656 409.324219 513.597656 C 413.085938 513.597656 416.144531 516.65625 416.144531 520.414062 L 416.144531 527.785156 C 416.144531 528.097656 415.886719 528.355469 415.574219 528.355469 " fill-opacity="1" fill-rule="nonzero"/><path fill="#f39200" d="M 518.742188 500.382812 L 459.609375 500.382812 C 458.753906 500.382812 458.058594 501.082031 458.058594 501.945312 L 458.058594 566.257812 C 458.058594 567.117188 458.746094 567.8125 459.605469 567.816406 L 463.671875 567.839844 C 464.257812 567.84375 464.792969 568.175781 465.054688 568.695312 L 467.890625 574.300781 L 467.921875 574.363281 L 518.742188 574.363281 C 518.960938 574.363281 519.140625 574.1875 519.140625 573.96875 L 519.140625 500.78125 C 519.140625 500.5625 518.960938 500.382812 518.742188 500.382812 " fill-opacity="1" fill-rule="nonzero"/><path fill="#282444" d="M 494.402344 500.914062 C 493.804688 500.914062 493.324219 500.433594 493.324219 499.835938 L 493.324219 496.136719 C 493.324219 491.464844 489.523438 487.664062 484.855469 487.664062 C 480.179688 487.664062 476.378906 491.464844 476.378906 496.136719 L 476.378906 499.835938 C 476.378906 500.433594 475.898438 500.914062 475.304688 500.914062 C 474.707031 500.914062 474.222656 500.433594 474.222656 499.835938 L 474.222656 496.136719 C 474.222656 490.273438 478.992188 485.503906 484.855469 485.503906 C 490.714844 485.503906 495.480469 490.273438 495.480469 496.136719 L 495.480469 499.835938 C 495.480469 500.433594 495 500.914062 494.402344 500.914062 " fill-opacity="1" fill-rule="nonzero"/><path fill="#282444" d="M 503.109375 508.484375 C 502.511719 508.484375 502.03125 508.003906 502.03125 507.40625 L 502.03125 496.136719 C 502.03125 491.464844 498.230469 487.660156 493.5625 487.660156 C 488.890625 487.660156 485.089844 491.464844 485.089844 496.136719 L 485.089844 507.40625 C 485.089844 508.003906 484.605469 508.484375 484.007812 508.484375 C 483.410156 508.484375 482.929688 508.003906 482.929688 507.40625 L 482.929688 496.136719 C 482.929688 490.273438 487.699219 485.503906 493.5625 485.503906 C 499.417969 485.503906 504.1875 490.273438 504.1875 496.136719 L 504.1875 507.40625 C 504.1875 508.003906 503.707031 508.484375 503.109375 508.484375 " fill-opacity="1" fill-rule="nonzero"/><path fill="#f9a730" d="M 467.929688 500.386719 L 464.042969 500.386719 L 464.042969 567.496094 C 464.042969 567.710938 464.152344 567.917969 464.34375 568.015625 C 464.625 568.164062 464.863281 568.398438 465.011719 568.695312 L 467.929688 574.363281 L 467.929688 500.386719 " fill-opacity="1" fill-rule="nonzero"/><path fill="#ffffff" d="M 186.484375 447.058594 C 178.539062 454.015625 165.792969 453.996094 160.417969 452.527344 C 107.464844 438.074219 80.808594 370.933594 80.914062 340.675781 C 80.984375 321.316406 87.636719 308.59375 98.878906 306.640625 C 104.777344 305.613281 109.609375 308.230469 113.246094 314.742188 C 128.269531 341.648438 140.515625 337.464844 141.894531 345.804688 C 142.242188 347.910156 142.46875 357.261719 134.9375 361.460938 C 130.117188 364.148438 134.039062 375.480469 136.542969 379.613281 C 150.242188 402.269531 162.234375 393.296875 181.574219 404.023438 C 186.304688 406.644531 193.5 414.847656 195.4375 426.472656 C 195.984375 429.742188 196.402344 438.367188 186.484375 447.058594 " fill-opacity="1" fill-rule="nonzero"/><path fill="#f79556" d="M 110.3125 322.976562 C 130.949219 364 139.351562 385.332031 145.761719 377.042969 C 157.570312 361.777344 170.996094 362.179688 179.015625 351.734375 C 181.863281 348.027344 186.535156 341.695312 189.105469 339.335938 C 190.453125 338.097656 199.429688 334.085938 201.507812 336.003906 C 201.65625 336.144531 205.816406 335.238281 208.671875 336.09375 C 210.449219 336.625 209.671875 337.921875 209.839844 337.90625 C 211.636719 337.703125 212.515625 338.046875 213.03125 338.144531 C 215.109375 338.519531 214.960938 339.488281 214.007812 340.503906 C 213.777344 340.742188 214.015625 340.878906 211.316406 343.183594 C 210.046875 344.273438 205.007812 346.5625 203.355469 348.410156 C 198.636719 353.675781 198.695312 354.035156 193.996094 356.402344 C 191.605469 357.601562 187.449219 358.425781 185.964844 360.164062 C 172.292969 376.179688 157.644531 403.65625 141.445312 403.675781 C 132.234375 403.683594 92.953125 371.230469 88.222656 331.320312 C 86.574219 317.421875 101.820312 306.109375 110.3125 322.976562 " fill-opacity="1" fill-rule="nonzero"/><path fill="#9b0013" d="M 294.835938 369.398438 C 282.339844 368.230469 268.644531 365.402344 254.726562 360.121094 C 247.671875 357.445312 243.113281 357.511719 236.3125 359.914062 C 220.15625 365.621094 177.296875 382.953125 154.648438 409.550781 C 145.503906 420.292969 143.6875 439.753906 151.523438 448 C 156.957031 453.722656 167.253906 454.558594 180.503906 451.019531 C 196.839844 446.65625 217.703125 425.664062 248.230469 389.894531 C 249.277344 388.667969 251.019531 388.328125 252.464844 389.039062 C 260.007812 392.765625 269.851562 394.792969 279.757812 395.007812 C 285.109375 389.21875 291.894531 380.703125 294.835938 369.398438 " fill-opacity="1" fill-rule="nonzero"/><path fill="#f79556" d="M 374.066406 375.921875 C 371.996094 374.605469 370.109375 377.21875 368.363281 379.507812 C 365.132812 383.75 346.714844 381.515625 332.1875 378.257812 C 328.234375 377.371094 319.542969 375.109375 318.285156 374.847656 C 300.03125 371.054688 274.46875 362.125 255.761719 347.21875 C 253.230469 345.195312 247.722656 341.511719 243.503906 338.109375 C 236.128906 332.15625 226.953125 336.871094 223.40625 339.503906 C 218.992188 342.78125 164.839844 384.347656 149.503906 424.664062 C 146.894531 431.519531 145.070312 440.15625 150.144531 446.183594 C 158.484375 456.09375 176.664062 452.714844 193.910156 441.65625 C 206.792969 433.394531 216.742188 407.304688 234.640625 371.753906 C 235.058594 370.921875 236.15625 370.703125 236.847656 371.316406 C 250.953125 383.707031 265.507812 388.34375 283.582031 389.671875 C 294.382812 390.464844 304.378906 390.570312 312.484375 391.488281 C 313.683594 391.628906 318.3125 391.988281 318.871094 394.40625 C 319.285156 396.199219 319.566406 397.851562 321.3125 401.050781 C 325.6875 409.074219 333.082031 402.476562 337.238281 400.539062 C 349.589844 394.78125 350.558594 399.039062 359.683594 394.84375 C 374.804688 387.90625 376.839844 377.6875 374.066406 375.921875 " fill-opacity="1" fill-rule="nonzero"/><path fill="#e30613" d="M 291.351562 366.945312 C 278.972656 362.1875 266.234375 355.679688 255.679688 347.269531 C 253.144531 345.246094 247.640625 341.558594 243.425781 338.15625 C 236.046875 332.207031 226.867188 336.917969 223.320312 339.554688 C 218.90625 342.828125 162.949219 382.132812 147.609375 422.453125 C 145.652344 427.597656 145.945312 436 147.453125 441.289062 C 147.953125 443.054688 148.789062 445.175781 150.058594 446.683594 C 158.402344 456.59375 179.335938 455.589844 195.179688 443.0625 C 207.1875 433.570312 216.65625 407.351562 234.558594 371.800781 C 234.976562 370.972656 236.070312 370.75 236.769531 371.363281 C 249.730469 382.757812 263.082031 387.59375 279.195312 389.328125 C 285.027344 380.382812 288.851562 373.019531 291.351562 366.945312 " fill-opacity="1" fill-rule="nonzero"/><path fill="#fff7f4" d="M 646.675781 324.140625 C 646.53125 324.148438 646.394531 324.121094 646.257812 324.050781 C 645.855469 323.847656 645.691406 323.347656 645.894531 322.945312 C 647.058594 320.65625 647.53125 318.09375 647.28125 315.53125 C 647.109375 313.800781 646.625 312.148438 645.832031 310.617188 C 645.621094 310.214844 645.777344 309.71875 646.179688 309.507812 C 646.585938 309.296875 647.085938 309.457031 647.292969 309.859375 C 648.183594 311.574219 648.730469 313.429688 648.917969 315.371094 C 649.203125 318.246094 648.664062 321.125 647.363281 323.6875 C 647.226562 323.960938 646.957031 324.125 646.675781 324.140625 " fill-opacity="1" fill-rule="nonzero"/><path fill="#fff7f4" d="M 649.992188 325.722656 C 649.855469 325.726562 649.710938 325.699219 649.582031 325.632812 C 649.167969 325.429688 649.007812 324.9375 649.214844 324.527344 C 650.65625 321.640625 651.253906 318.40625 650.9375 315.171875 C 650.71875 312.929688 650.082031 310.792969 649.035156 308.820312 C 648.824219 308.417969 648.980469 307.917969 649.382812 307.707031 C 649.785156 307.492188 650.28125 307.648438 650.492188 308.050781 C 651.632812 310.214844 652.335938 312.554688 652.574219 315.015625 C 652.921875 318.554688 652.269531 322.101562 650.683594 325.265625 C 650.546875 325.539062 650.277344 325.703125 649.992188 325.722656 " fill-opacity="1" fill-rule="nonzero"/><path fill="#fff7f4" d="M 652.960938 327.546875 C 652.820312 327.554688 652.675781 327.523438 652.542969 327.453125 C 652.136719 327.242188 651.976562 326.75 652.191406 326.34375 C 654.023438 322.800781 654.785156 318.824219 654.394531 314.835938 C 654.125 312.054688 653.316406 309.410156 651.996094 306.980469 C 651.777344 306.582031 651.929688 306.082031 652.324219 305.863281 C 652.726562 305.644531 653.222656 305.796875 653.441406 306.195312 C 654.871094 308.820312 655.738281 311.675781 656.035156 314.675781 C 656.457031 318.980469 655.632812 323.273438 653.648438 327.101562 C 653.511719 327.371094 653.246094 327.527344 652.960938 327.546875 " fill-opacity="1" fill-rule="nonzero"/><path fill="#fff7f4" d="M 656.457031 329.238281 C 656.316406 329.25 656.171875 329.21875 656.042969 329.152344 C 655.636719 328.941406 655.476562 328.449219 655.6875 328.042969 C 657.832031 323.855469 658.726562 319.160156 658.265625 314.457031 C 657.9375 311.128906 656.96875 307.96875 655.378906 305.058594 C 655.160156 304.664062 655.304688 304.160156 655.707031 303.941406 C 656.097656 303.726562 656.601562 303.871094 656.824219 304.269531 C 658.523438 307.375 659.554688 310.746094 659.902344 314.296875 C 660.394531 319.3125 659.441406 324.328125 657.152344 328.792969 C 657.011719 329.066406 656.738281 329.226562 656.457031 329.238281 " fill-opacity="1" fill-rule="nonzero"/><path fill="#ffbcb0" d="M 103.414062 447.703125 C 108.140625 441.335938 111.84375 438.902344 122.136719 438.871094 C 134.324219 438.832031 142.492188 455.148438 165.417969 455.148438 C 212.628906 455.148438 203.398438 437.25 238.734375 437.640625 C 247.074219 437.730469 262.097656 440.265625 265.757812 449.058594 C 269.660156 458.425781 269.90625 477.195312 266.828125 485.207031 C 264.683594 490.777344 258.058594 492.949219 256.027344 493.179688 C 229.210938 496.175781 147.523438 495.96875 115.898438 493.917969 C 112.855469 493.71875 104.703125 493.125 101.894531 486.277344 C 100.164062 482.054688 96.554688 456.945312 103.414062 447.703125 " fill-opacity="1" fill-rule="nonzero"/><path fill="#e30613" d="M 200.175781 99.527344 L 183.941406 99.527344 L 200.640625 49.371094 L 215.542969 49.371094 L 200.175781 99.527344 " fill-opacity="1" fill-rule="nonzero"/><path fill="#ffffff" d="M 216.414062 99.527344 L 200.175781 99.527344 L 215.542969 49.371094 L 230.445312 49.371094 L 216.414062 99.527344 " fill-opacity="1" fill-rule="nonzero"/><path fill="#e30613" d="M 232.652344 99.527344 L 216.414062 99.527344 L 230.445312 49.371094 L 245.34375 49.371094 L 232.652344 99.527344 " fill-opacity="1" fill-rule="nonzero"/><path fill="#ffffff" d="M 248.890625 99.527344 L 232.652344 99.527344 L 245.34375 49.371094 L 260.246094 49.371094 L 248.890625 99.527344 " fill-opacity="1" fill-rule="nonzero"/><path fill="#e30613" d="M 265.128906 99.527344 L 248.890625 99.527344 L 260.246094 49.371094 L 275.148438 49.371094 L 265.128906 99.527344 " fill-opacity="1" fill-rule="nonzero"/><path fill="#ffffff" d="M 281.363281 99.527344 L 265.128906 99.527344 L 275.148438 49.371094 L 290.050781 49.371094 L 281.363281 99.527344 " fill-opacity="1" fill-rule="nonzero"/><path fill="#e30613" d="M 297.601562 99.527344 L 281.363281 99.527344 L 290.050781 49.371094 L 304.949219 49.371094 L 297.601562 99.527344 " fill-opacity="1" fill-rule="nonzero"/><path fill="#ffffff" d="M 313.839844 99.527344 L 297.601562 99.527344 L 304.949219 49.371094 L 319.855469 49.371094 L 313.839844 99.527344 " fill-opacity="1" fill-rule="nonzero"/><path fill="#e30613" d="M 330.078125 99.527344 L 313.839844 99.527344 L 319.855469 49.371094 L 334.753906 49.371094 L 330.078125 99.527344 " fill-opacity="1" fill-rule="nonzero"/><path fill="#ffffff" d="M 346.3125 99.527344 L 330.078125 99.527344 L 334.753906 49.371094 L 349.65625 49.371094 L 346.3125 99.527344 " fill-opacity="1" fill-rule="nonzero"/><path fill="#e30613" d="M 362.554688 99.527344 L 346.3125 99.527344 L 349.65625 49.371094 L 364.554688 49.371094 L 362.554688 99.527344 " fill-opacity="1" fill-rule="nonzero"/><path fill="#ffffff" d="M 378.789062 99.527344 L 362.554688 99.527344 L 364.554688 49.371094 L 379.460938 49.371094 L 378.789062 99.527344 " fill-opacity="1" fill-rule="nonzero"/><path fill="#e30613" d="M 395.03125 99.527344 L 378.789062 99.527344 L 379.460938 49.371094 L 394.363281 49.371094 L 395.03125 99.527344 " fill-opacity="1" fill-rule="nonzero"/><path fill="#ffffff" d="M 411.265625 99.527344 L 395.03125 99.527344 L 394.363281 49.371094 L 409.261719 49.371094 L 411.265625 99.527344 " fill-opacity="1" fill-rule="nonzero"/><path fill="#e30613" d="M 427.503906 99.527344 L 411.265625 99.527344 L 409.261719 49.371094 L 424.164062 49.371094 L 427.503906 99.527344 " fill-opacity="1" fill-rule="nonzero"/><path fill="#ffffff" d="M 443.742188 99.527344 L 427.503906 99.527344 L 424.164062 49.371094 L 439.066406 49.371094 L 443.742188 99.527344 " fill-opacity="1" fill-rule="nonzero"/><path fill="#e30613" d="M 459.980469 99.527344 L 443.742188 99.527344 L 439.070312 49.371094 L 453.964844 49.371094 L 459.980469 99.527344 " fill-opacity="1" fill-rule="nonzero"/><path fill="#ffffff" d="M 476.21875 99.527344 L 459.984375 99.527344 L 453.96875 49.367188 L 468.871094 49.367188 L 476.21875 99.527344 " fill-opacity="1" fill-rule="nonzero"/><path fill="#e30613" d="M 492.457031 99.527344 L 476.21875 99.527344 L 468.867188 49.371094 L 483.773438 49.371094 L 492.457031 99.527344 " fill-opacity="1" fill-rule="nonzero"/><path fill="#ffffff" d="M 508.691406 99.527344 L 492.453125 99.527344 L 483.769531 49.371094 L 498.671875 49.371094 L 508.691406 99.527344 " fill-opacity="1" fill-rule="nonzero"/><path fill="#e30613" d="M 524.933594 99.527344 L 508.695312 99.527344 L 498.675781 49.371094 L 513.574219 49.371094 L 524.933594 99.527344 " fill-opacity="1" fill-rule="nonzero"/><path fill="#ffffff" d="M 541.164062 99.527344 L 524.929688 99.527344 L 513.574219 49.371094 L 528.476562 49.371094 L 541.164062 99.527344 " fill-opacity="1" fill-rule="nonzero"/><path fill="#e30613" d="M 557.410156 99.527344 L 541.167969 99.527344 L 528.476562 49.367188 L 543.382812 49.367188 L 557.410156 99.527344 " fill-opacity="1" fill-rule="nonzero"/><path fill="#ffffff" d="M 573.644531 99.523438 L 557.40625 99.523438 L 543.378906 49.371094 L 558.277344 49.371094 L 573.644531 99.523438 " fill-opacity="1" fill-rule="nonzero"/><path fill="#e30613" d="M 589.882812 99.527344 L 573.648438 99.527344 L 558.277344 49.367188 L 573.179688 49.367188 L 589.882812 99.527344 " fill-opacity="1" fill-rule="nonzero"/><path fill="#be1622" d="M 194.085938 120.53125 L 190.03125 120.53125 C 186.664062 120.53125 183.941406 117.804688 183.941406 114.4375 L 183.941406 99.527344 L 200.175781 99.527344 L 200.175781 114.4375 C 200.175781 117.804688 197.453125 120.53125 194.085938 120.53125 " fill-opacity="1" fill-rule="nonzero"/><path fill="#ededed" d="M 210.324219 120.53125 L 206.269531 120.53125 C 202.902344 120.53125 200.175781 117.804688 200.175781 114.4375 L 200.175781 99.527344 L 216.417969 99.527344 L 216.417969 114.4375 C 216.417969 117.804688 213.6875 120.53125 210.324219 120.53125 " fill-opacity="1" fill-rule="nonzero"/><path fill="#be1622" d="M 226.5625 120.53125 L 222.507812 120.53125 C 219.144531 120.53125 216.417969 117.804688 216.417969 114.4375 L 216.417969 99.527344 L 232.652344 99.527344 L 232.652344 114.4375 C 232.652344 117.804688 229.925781 120.53125 226.5625 120.53125 " fill-opacity="1" fill-rule="nonzero"/><path fill="#ededed" d="M 242.800781 120.53125 L 238.746094 120.53125 C 235.378906 120.53125 232.652344 117.804688 232.652344 114.4375 L 232.652344 99.527344 L 248.890625 99.527344 L 248.890625 114.4375 C 248.890625 117.804688 246.164062 120.53125 242.800781 120.53125 " fill-opacity="1" fill-rule="nonzero"/><path fill="#be1622" d="M 259.035156 120.53125 L 254.980469 120.53125 C 251.617188 120.53125 248.890625 117.804688 248.890625 114.4375 L 248.890625 99.527344 L 265.128906 99.527344 L 265.128906 114.4375 C 265.128906 117.804688 262.398438 120.53125 259.035156 120.53125 " fill-opacity="1" fill-rule="nonzero"/><path fill="#ededed" d="M 275.273438 120.53125 L 271.21875 120.53125 C 267.855469 120.53125 265.128906 117.804688 265.128906 114.4375 L 265.128906 99.527344 L 281.363281 99.527344 L 281.363281 114.4375 C 281.363281 117.804688 278.636719 120.53125 275.273438 120.53125 " fill-opacity="1" fill-rule="nonzero"/><path fill="#be1622" d="M 291.511719 120.53125 L 287.457031 120.53125 C 284.09375 120.53125 281.363281 117.804688 281.363281 114.4375 L 281.363281 99.527344 L 297.601562 99.527344 L 297.601562 114.4375 C 297.601562 117.804688 294.875 120.53125 291.511719 120.53125 " fill-opacity="1" fill-rule="nonzero"/><path fill="#ededed" d="M 307.75 120.53125 L 303.695312 120.53125 C 300.328125 120.53125 297.601562 117.804688 297.601562 114.4375 L 297.601562 99.527344 L 313.839844 99.527344 L 313.839844 114.4375 C 313.839844 117.804688 311.113281 120.53125 307.75 120.53125 " fill-opacity="1" fill-rule="nonzero"/><path fill="#be1622" d="M 323.984375 120.53125 L 319.929688 120.53125 C 316.566406 120.53125 313.839844 117.804688 313.839844 114.4375 L 313.839844 99.527344 L 330.078125 99.527344 L 330.078125 114.4375 C 330.078125 117.804688 327.351562 120.53125 323.984375 120.53125 " fill-opacity="1" fill-rule="nonzero"/><path fill="#ededed" d="M 340.222656 120.53125 L 336.167969 120.53125 C 332.804688 120.53125 330.078125 117.804688 330.078125 114.4375 L 330.078125 99.527344 L 346.3125 99.527344 L 346.3125 114.4375 C 346.3125 117.804688 343.589844 120.53125 340.222656 120.53125 " fill-opacity="1" fill-rule="nonzero"/><path fill="#be1622" d="M 356.464844 120.53125 L 352.40625 120.53125 C 349.042969 120.53125 346.3125 117.804688 346.3125 114.4375 L 346.3125 99.527344 L 362.550781 99.527344 L 362.550781 114.4375 C 362.550781 117.804688 359.824219 120.53125 356.464844 120.53125 " fill-opacity="1" fill-rule="nonzero"/><path fill="#ededed" d="M 372.699219 120.53125 L 368.648438 120.53125 C 365.277344 120.53125 362.550781 117.804688 362.550781 114.4375 L 362.550781 99.527344 L 378.792969 99.527344 L 378.792969 114.4375 C 378.792969 117.804688 376.066406 120.53125 372.699219 120.53125 " fill-opacity="1" fill-rule="nonzero"/><path fill="#be1622" d="M 388.9375 120.53125 L 384.882812 120.53125 C 381.519531 120.53125 378.792969 117.804688 378.792969 114.4375 L 378.792969 99.527344 L 395.03125 99.527344 L 395.03125 114.4375 C 395.03125 117.804688 392.300781 120.53125 388.9375 120.53125 " fill-opacity="1" fill-rule="nonzero"/><path fill="#ededed" d="M 405.175781 120.527344 L 401.121094 120.527344 C 397.757812 120.527344 395.03125 117.804688 395.03125 114.4375 L 395.03125 99.527344 L 411.265625 99.527344 L 411.265625 114.4375 C 411.265625 117.804688 408.539062 120.527344 405.175781 120.527344 " fill-opacity="1" fill-rule="nonzero"/><path fill="#be1622" d="M 421.410156 120.53125 L 417.359375 120.53125 C 413.992188 120.53125 411.265625 117.804688 411.265625 114.4375 L 411.265625 99.53125 L 427.5 99.53125 L 427.5 114.4375 C 427.5 117.804688 424.777344 120.53125 421.410156 120.53125 " fill-opacity="1" fill-rule="nonzero"/><path fill="#ededed" d="M 437.652344 120.53125 L 433.597656 120.53125 C 430.234375 120.53125 427.507812 117.800781 427.507812 114.4375 L 427.507812 99.527344 L 443.746094 99.527344 L 443.746094 114.4375 C 443.746094 117.800781 441.015625 120.53125 437.652344 120.53125 " fill-opacity="1" fill-rule="nonzero"/><path fill="#be1622" d="M 453.886719 120.53125 L 449.835938 120.53125 C 446.46875 120.53125 443.742188 117.804688 443.742188 114.433594 L 443.742188 99.527344 L 459.980469 99.527344 L 459.980469 114.433594 C 459.980469 117.804688 457.25 120.53125 453.886719 120.53125 " fill-opacity="1" fill-rule="nonzero"/><path fill="#ededed" d="M 470.125 120.527344 L 466.070312 120.527344 C 462.707031 120.527344 459.984375 117.800781 459.984375 114.4375 L 459.984375 99.527344 L 476.21875 99.527344 L 476.21875 114.4375 C 476.21875 117.800781 473.492188 120.527344 470.125 120.527344 " fill-opacity="1" fill-rule="nonzero"/><path fill="#be1622" d="M 486.367188 120.53125 L 482.308594 120.53125 C 478.949219 120.53125 476.21875 117.800781 476.21875 114.433594 L 476.21875 99.527344 L 492.457031 99.527344 L 492.457031 114.433594 C 492.457031 117.800781 489.726562 120.53125 486.367188 120.53125 " fill-opacity="1" fill-rule="nonzero"/><path fill="#ededed" d="M 502.597656 120.53125 L 498.542969 120.53125 C 495.175781 120.53125 492.453125 117.800781 492.453125 114.4375 L 492.453125 99.527344 L 508.691406 99.527344 L 508.691406 114.4375 C 508.691406 117.800781 505.964844 120.53125 502.597656 120.53125 " fill-opacity="1" fill-rule="nonzero"/><path fill="#be1622" d="M 518.839844 120.53125 L 514.78125 120.53125 C 511.421875 120.53125 508.695312 117.804688 508.695312 114.4375 L 508.695312 99.527344 L 524.929688 99.527344 L 524.929688 114.4375 C 524.929688 117.804688 522.203125 120.53125 518.839844 120.53125 " fill-opacity="1" fill-rule="nonzero"/><path fill="#ededed" d="M 535.078125 120.53125 L 531.019531 120.53125 C 527.65625 120.53125 524.925781 117.804688 524.925781 114.441406 L 524.925781 99.527344 L 541.164062 99.527344 L 541.164062 114.441406 C 541.164062 117.804688 538.4375 120.53125 535.078125 120.53125 " fill-opacity="1" fill-rule="nonzero"/><path fill="#be1622" d="M 551.316406 120.53125 L 547.261719 120.53125 C 543.898438 120.53125 541.167969 117.800781 541.167969 114.433594 L 541.167969 99.527344 L 557.410156 99.527344 L 557.410156 114.433594 C 557.410156 117.800781 554.683594 120.53125 551.316406 120.53125 " fill-opacity="1" fill-rule="nonzero"/><path fill="#ededed" d="M 567.550781 120.527344 L 563.496094 120.527344 C 560.128906 120.527344 557.40625 117.800781 557.40625 114.433594 L 557.40625 99.523438 L 573.644531 99.523438 L 573.644531 114.433594 C 573.644531 117.800781 570.917969 120.527344 567.550781 120.527344 " fill-opacity="1" fill-rule="nonzero"/><path fill="#be1622" d="M 583.792969 120.53125 L 579.734375 120.53125 C 576.371094 120.53125 573.648438 117.800781 573.648438 114.433594 L 573.648438 99.527344 L 589.882812 99.527344 L 589.882812 114.433594 C 589.882812 117.800781 587.15625 120.53125 583.792969 120.53125 " fill-opacity="1" fill-rule="nonzero"/><g clip-path="url(#553556cc8d)"><path stroke-linecap="butt" transform="matrix(0.0627322, 0, 0, -0.0627487, -149.051344, 649.490462)" fill="none" stroke-linejoin="miter" d="M 16300.007449 2.711597 L 2.686518 2.711597 L 2.686518 10867.59871 L 16300.007449 10867.59871 Z M 16300.007449 2.711597 " stroke="#000000" stroke-width="5.432" stroke-opacity="1" stroke-miterlimit="10"/></g></svg>